<?xml version="1.0" standalone="no"?>
<!DOCTYPE svg PUBLIC "-//W3C//DTD SVG 20010904//EN"
 "http://www.w3.org/TR/2001/REC-SVG-20010904/DTD/svg10.dtd">
<svg version="1.0" xmlns="http://www.w3.org/2000/svg"
 width="720.000000pt" height="720.000000pt" viewBox="0 0 720.000000 720.000000"
 preserveAspectRatio="xMidYMid meet">
<metadata>
Created by potrace 1.14, written by Peter Selinger 2001-2017
</metadata>
<g transform="translate(0.000000,720.000000) scale(0.100000,-0.100000)"
fill="#000000" stroke="none">
<path d="M2080 5310 l0 -290 1520 0 1520 0 0 290 0 290 -1520 0 -1520 0 0
-290z"/>
<path d="M2080 4295 l0 -345 891 0 891 0 -103 -111 c-539 -578 -869 -1136
-1050 -1772 -37 -134 -99 -411 -99 -449 0 -17 37 -18 630 -18 l630 0 0 48 c0
123 62 449 126 662 99 327 310 739 554 1081 136 190 372 470 519 614 l61 59 0
288 0 288 -1525 0 -1525 0 0 -345z"/>
</g>
</svg>
