<svg xmlns="http://www.w3.org/2000/svg" xmlns:blush="http://design.blush"
    xmlns:xlink="http://www.w3.org/1999/xlink"
    viewBox="75.45000000000005 64.01748251748256 855.1000000000003 615.0699300699301"
    overflow="visible" width="855.1000000000003px" height="615.0699300699301px">
    <g id="Master/404/Chatting" stroke="none" stroke-width="1" fill="none" fill-rule="evenodd"
        blush:viewBox="65.38999999999999 54.80532212885157 885.2800000000002 578.2212885154061"
        blush:i="0">
        <g id="Rock/Big" transform="translate(280.000000, 286.000000) scale(1 1)" blush:width="666"
            blush:height="324" blush:component="Rock/Big" blush:i="0.0" blush:value="Yellow 2"
            blush:viewBox="176.49 123.66666666666669 313.0199999999999 203.3333333333334">
            <g id="Rock/Big/Yellow 2" stroke="none" stroke-width="1" fill="none" fill-rule="evenodd"
                blush:viewBox="176.49 123.66666666666669 313.0199999999999 203.3333333333334"
                blush:i="0.0.0">
                <path
                    d="M177,324 C214.367097,190.666667 240.646135,124 255.837115,124 C278.623584,124 351.230023,182.419878 372.609292,182.419878 C386.862138,182.419878 425.659041,229.613252 489,324 L177,324 Z"
                    id="Path-6" fill="#FFDA2D" blush:i="0.0.0.0" />
            </g>
        </g>
        <g id="Rock/Medium" transform="translate(35.000000, 359.000000) scale(1 1)"
            blush:width="493" blush:height="248" blush:component="Rock/Medium" blush:i="0.1"
            blush:value="Color 2"
            blush:viewBox="51.76500000000004 -1.4761904761904816 389.4700000000001 250.95238095238088">
            <g id="Rock/Medium/Color 2" stroke="none" stroke-width="1" fill="none"
                fill-rule="evenodd"
                blush:viewBox="51.76500000000004 -1.4761904761904816 389.4700000000001 250.95238095238088"
                blush:i="0.1.0">
                <path
                    d="M53,248 C99.3495721,82.6666667 131.945687,0 150.788344,0 C179.05233,0 269.11224,72.4406485 295.630757,72.4406485 C313.309768,72.4406485 361.432849,130.960432 440,248 L53,248 Z"
                    id="Path-6" fill="#FFDA2D" blush:i="0.1.0.0" />
            </g>
        </g>
        <path
            d="M395.720872,616 L770,616 C713.999193,365.333333 663.245547,240 617.739063,240 C549.479337,240 524.490387,318.041778 487.047471,348.181676 C449.604554,378.321575 427.834692,391.629349 366.614495,369.905513 C305.394298,348.181676 178,357.393446 178,430.193781 C178,478.727338 195.903254,540.583745 231.709763,615.763002 L395.720872,616 Z"
            id="Background" fill="#FBF9FF" blush:i="0.2" />
        <g transform="translate(67.000000, 94.000000) scale(1 0.99963431542461)" blush:width="567"
            blush:height="576.789" id="Master/Character/Torso"
            blush:component="Master/Character/Torso" blush:i="0.3" blush:value="Torso"
            blush:viewBox="137.70824847250503 366.3950000000001 274.26171079429747 155.79">
            <g id="Master/Character/Torso" stroke="none" stroke-width="1" fill="none"
                fill-rule="evenodd"
                blush:viewBox="137.70824847250503 366.3950000000001 274.26171079429747 155.79"
                blush:i="0.3.0">
                <g id="Torso" transform="translate(139.000000, 391.000000) scale(1 1)"
                    blush:width="289" blush:height="186" blush:component="Torso" blush:i="0.3.0.0"
                    blush:value="Pointing Color"
                    blush:viewBox="50.57499999999999 -21.083850931677034 229.75499999999997 205.06211180124225">
                    <g id="Torso/Pointing Color" stroke="none" stroke-width="1" fill="none"
                        fill-rule="evenodd"
                        blush:viewBox="50.57499999999999 -21.083850931677034 229.75499999999997 205.06211180124225"
                        blush:i="0.3.0.0.0">
                        <g id="Group-6" transform="translate(52.000000, -22.000000)"
                            blush:i="0.3.0.0.0.0">
                            <path
                                d="M52.1869,57.8504 C52.1869,57.8504 17.7949,77.2724 10.2989,92.7574 C2.8039,108.2444 3.6369,163.6354 3.6369,163.6354 L33.1689,159.9544 L37.0019,193.8634 C37.0019,193.8634 69.5199,202.0024 85.8509,196.6534 C102.1809,191.3034 130.9029,176.9414 130.9029,176.9414 L126.4999,109.9094 L154.6159,131.4984 L170.4809,84.9614 L162.4409,78.4114 L159.8429,83.1244 C159.8429,83.1244 119.7929,54.5884 116.4809,54.1914 C113.1689,53.7934 93.5889,54.8284 93.5889,54.8284 C93.5889,54.8284 93.5829,75.0634 88.0249,78.4114 C82.4679,81.7584 73.2479,85.1684 66.7049,78.4114 C60.1619,71.6534 52.1869,57.8504 52.1869,57.8504"
                                id="Fill-1" fill="#5348e4" blush:i="0.3.0.0.0.0.0" />
                            <g id="Group-5" transform="translate(0.000000, 0.688000)" fill="#000"
                                blush:i="0.3.0.0.0.0.1">
                                <path
                                    d="M211.1048,32.7708 C211.2048,32.9918 211.3048,33.2118 211.4048,33.4338 C212.2688,33.2708 213.5038,33.4098 213.9268,32.8888 C215.2508,31.2568 216.3328,29.4088 217.1138,27.3798 C215.1118,26.8918 214.7598,26.8728 214.0158,27.9558 C212.9548,29.4988 212.0668,31.1598 211.1048,32.7708 M224.0308,34.4288 C222.2008,37.7968 220.6108,40.9208 220.0258,44.4828 C222.9048,41.9798 224.9858,38.9838 226.4148,35.3098 C225.5878,35.0048 224.9418,34.7658 224.0308,34.4288 M222.3348,3.6128 C217.0628,6.4278 202.6448,26.7918 201.7418,32.0228 C203.5648,32.2088 205.3788,32.3958 207.1928,32.5798 C208.9088,32.7538 209.2718,32.4618 209.7968,30.9018 C210.3268,29.3288 210.8788,27.7478 211.6038,26.2578 C214.3988,20.5168 217.2978,14.8268 220.0898,9.0838 C220.9498,7.3148 221.5928,5.4388 222.3348,3.6128 M2.1948,151.6008 C2.0738,151.9058 1.8608,152.1928 1.8598,152.4798 C1.8538,155.4298 1.8688,158.3808 1.9048,161.3318 C1.9188,162.4348 2.6948,162.8818 3.6368,162.9478 C5.8568,163.1008 8.1178,163.4608 10.3008,163.2088 C15.5218,162.6068 20.7168,161.7538 25.9038,160.8918 C28.3058,160.4928 30.6658,159.8338 33.1688,159.2658 C32.8078,155.5458 32.4728,152.0838 32.1218,148.4688 C22.0898,150.6218 12.3018,152.3898 2.1948,151.6008 M154.6158,130.8108 C155.3628,129.1628 156.0448,127.9228 156.5018,126.6048 C158.0728,122.0808 159.5898,117.5358 161.0818,112.9838 C163.7908,104.7128 166.4768,96.4338 169.1448,88.1508 C169.4338,87.2528 169.7748,86.2708 169.6678,85.3778 C169.5788,84.6358 169.7448,84.2648 170.1468,83.7118 C171.0308,82.4978 170.9598,81.7188 169.7158,80.8768 C168.0218,79.7318 166.1828,78.7978 164.3188,77.7228 C162.3938,80.6248 161.1078,83.4918 160.1948,86.5648 C158.8308,91.1568 157.4748,95.7578 155.8848,100.2748 C153.2598,107.7298 150.6618,115.2088 146.5158,122.0178 C145.9938,122.8748 145.7348,123.8918 145.2618,125.0618 C148.3168,126.9398 151.2248,128.7268 154.6158,130.8108 M158.7328,126.2158 C158.9728,126.5098 159.0458,126.6888 159.1748,126.7458 C165.6158,129.5828 172.1118,132.3058 179.0838,133.5348 C184.2758,134.4498 188.5378,132.6988 191.6188,128.3458 C192.4488,127.1738 193.2348,125.9598 193.9288,124.7048 C196.6058,119.8548 198.4888,114.6648 200.1578,109.4118 C205.5748,92.3578 210.9048,75.2768 216.2608,58.2038 C217.4248,54.4898 218.5548,50.7648 219.6958,47.0588 C217.8818,45.6988 217.7278,45.3118 218.2728,43.2338 C218.5798,42.0678 218.9378,40.9168 219.3898,39.3548 C217.7168,40.7348 216.5108,41.9118 215.1318,42.8298 C212.4928,44.5848 211.4368,44.0708 210.8128,40.9228 C210.7978,40.8468 210.7448,40.7788 210.7298,40.7478 C209.9798,40.4378 209.0608,40.3278 208.5868,39.8088 C207.5188,38.6388 206.4418,38.9088 205.3508,39.5078 C204.5238,39.9608 203.8038,40.6098 203.0408,41.1768 C201.8278,42.0808 200.6548,43.0468 199.3818,43.8568 C199.0488,44.0688 198.4098,43.8008 197.9108,43.7528 C198.0848,43.2828 198.1258,42.6608 198.4568,42.3678 C199.8278,41.1588 201.2698,40.0268 202.7168,38.9078 C204.2218,37.7448 205.8658,37.1888 207.8378,37.5228 C209.6408,37.8278 211.4858,37.9188 213.3178,38.0178 C214.5008,38.0818 215.4948,37.7308 215.7358,36.1328 C214.7678,35.8108 213.8948,35.4048 212.9788,35.2378 C210.8578,34.8518 208.7248,34.5048 206.5818,34.2828 C204.1198,34.0278 201.6438,33.8278 199.1698,33.7848 C197.0558,33.7488 196.4898,34.2048 195.9078,36.2428 C195.4278,37.9228 195.1858,39.6698 194.8048,41.3798 C194.4758,42.8528 194.2578,44.3768 193.7138,45.7698 C191.5908,51.2028 189.2428,56.5478 187.1928,62.0068 C184.4148,69.4068 181.8248,76.8758 179.1808,84.3258 C178.9518,84.9698 178.9208,85.6838 178.7738,86.4998 C180.8198,87.2298 182.6928,87.8828 184.5528,88.5708 C185.1478,88.7908 185.7398,89.0518 186.2708,89.3928 C186.4758,89.5248 186.6748,90.0318 186.5808,90.1878 C186.4078,90.4728 186.0198,90.7808 185.7108,90.7918 C185.2578,90.8098 184.7878,90.5968 184.3388,90.4428 C181.9228,89.6118 179.5128,88.7648 177.0978,87.9308 C175.3868,87.3388 173.6718,86.7598 171.9028,86.1568 C167.4548,99.6858 163.0758,113.0068 158.7328,126.2158 M216.6788,38.2758 C219.1048,37.3828 220.0978,35.2138 221.0758,33.1188 C221.2698,32.7028 220.7478,31.7948 220.3338,31.2998 C219.9658,30.8598 219.2898,30.6758 218.5468,30.2688 C217.6468,31.6828 216.8128,32.9948 216.0438,34.2038 C216.7968,35.6678 217.9038,36.8398 216.7258,38.3538 C215.8428,38.8138 215.0008,39.3958 214.0668,39.7018 C212.8578,40.0968 212.7088,40.7218 213.2848,42.0888 C214.6178,40.7658 216.6678,40.5248 216.6788,38.2758 M3.8248,149.7538 C8.6218,150.7698 27.0148,148.3048 31.7868,146.3538 C31.7868,145.6918 31.8238,144.9858 31.7808,144.2848 C31.5158,139.8968 31.2198,135.5118 30.9668,131.1248 C30.9198,130.3088 30.5038,129.0678 31.6918,128.9378 C32.9748,128.7978 32.7148,130.1568 32.7738,130.9198 C33.2068,136.4968 33.4418,142.0908 33.9788,147.6568 C35.1208,159.5048 36.3938,171.3418 37.6468,183.1798 C37.9998,186.5178 38.4748,189.8428 38.8788,193.1748 C38.9368,193.6448 38.9868,194.1388 38.8948,194.5918 C38.8458,194.8308 38.4998,195.1318 38.2518,195.1688 C38.0098,195.2058 37.5778,195.0088 37.4828,194.7988 C37.2568,194.3028 37.1208,193.7478 37.0558,193.2028 C35.8788,183.2848 34.7208,173.3658 33.5478,163.4478 C33.4738,162.8218 33.3138,162.2068 33.1298,161.2558 C24.1858,163.1658 15.3208,165.1048 5.9498,165.2748 C6.4078,168.7408 6.8338,171.9688 7.2618,175.1968 C8.4478,184.1458 9.6338,193.0938 10.8188,202.0418 C10.8398,202.2008 10.8558,202.3608 10.8588,202.5198 C10.8708,203.1608 10.9598,203.9248 10.0738,203.9958 C9.1798,204.0668 9.1488,203.2828 9.0718,202.6578 C8.6408,199.1678 8.2658,195.6718 7.7938,192.1888 C6.9038,185.6198 5.9528,179.0568 5.0428,172.4898 C4.7698,170.5118 4.5338,168.5278 4.3178,166.5418 C4.2128,165.5738 3.8958,164.8998 2.8058,164.7078 C0.7838,164.3488 0.1278,162.9348 0.1138,161.0438 C0.0968,158.7258 -0.0052,156.4078 0.000545701215,154.0888 C0.0038,152.4878 0.1138,150.9188 1.3558,149.6278 C1.7158,149.2548 1.7428,148.4528 1.7338,147.8498 C1.5868,137.8568 1.3648,127.8648 1.2528,117.8718 C1.1788,111.2228 1.4348,104.6008 3.6248,98.2098 C6.5578,89.6498 11.8768,82.7858 18.5568,76.8338 C24.2058,71.8008 30.7188,68.0418 37.0498,63.9998 C43.0658,60.1608 49.6668,57.4578 55.9258,54.0978 C57.2628,53.3788 58.5688,52.6028 59.9068,51.8878 C60.6018,51.5168 60.6198,51.5508 61.8688,52.2738 C60.3528,54.2398 57.7938,54.6628 55.9738,56.2838 C56.1668,56.6928 56.2938,57.0638 56.4998,57.3858 C60.0248,62.9218 63.7648,68.2978 68.4068,72.9808 C70.5638,75.1568 73.0078,76.9658 75.8408,78.1538 C77.1538,78.7038 78.5568,79.1758 79.9588,79.3468 C85.0968,79.9748 88.1858,78.3118 90.3788,73.6168 C91.2808,71.6838 91.8978,69.5818 92.3708,67.4938 C93.3268,63.2748 93.4258,58.9658 93.4818,54.3728 C92.6238,54.4388 91.9208,54.3858 91.2848,54.5688 C90.4188,54.8168 89.7448,54.6168 89.6898,53.7668 C89.6668,53.4098 90.4258,52.7238 90.8938,52.6608 C92.9498,52.3778 95.0278,52.2288 97.1018,52.1068 C103.0048,51.7568 108.9068,51.3658 114.8138,51.1438 C118.6888,50.9978 122.1418,52.5158 125.2908,54.6088 C129.5508,57.4398 133.6938,60.4468 137.9038,63.3528 C144.9428,68.2098 151.9948,73.0508 159.0468,77.8898 C159.6298,78.2908 160.2628,78.6168 161.0708,79.0948 C161.5528,78.3638 162.0198,77.7418 162.3948,77.0688 C162.9528,76.0668 163.8008,75.6428 164.7918,76.1528 C166.9868,77.2838 169.1738,78.4538 171.2438,79.7918 C172.7718,80.7818 172.7708,82.4628 172.3578,84.2738 C173.8778,84.8028 175.2668,85.2868 176.7358,85.7968 C177.7768,82.5148 178.5858,79.4208 179.7298,76.4558 C183.5518,66.5418 187.5238,56.6848 191.3608,46.7768 C192.0438,45.0118 192.3818,43.1088 192.8348,41.2588 C193.2138,39.7098 193.5758,38.1548 193.8628,36.5868 C194.4068,33.6058 195.9148,31.7588 199.2538,31.9848 C202.0448,25.4928 206.0288,19.8008 210.0478,14.1578 C212.5458,10.6498 215.3868,7.3778 218.1838,4.0948 C219.2618,2.8298 220.5908,1.7508 221.9198,0.7388 C222.3918,0.3788 223.4068,0.1648 223.8068,0.4318 C224.2448,0.7248 224.5078,1.6958 224.4048,2.2938 C224.1758,3.6208 223.7988,4.9578 223.2538,6.1878 C221.4088,10.3498 219.4898,14.4788 217.5468,18.5958 C216.5648,20.6778 215.4688,22.7068 214.3088,24.9848 C215.0458,25.0808 215.5508,25.1638 216.0598,25.2098 C218.6588,25.4528 219.0648,25.8698 219.1118,28.4088 C220.5928,29.4038 222.4238,29.9938 223.1168,31.9748 C223.2588,32.3818 224.1378,32.6218 224.7198,32.7708 C228.6998,33.7888 229.0988,34.5758 227.0308,38.1998 C224.7778,42.1478 222.1468,45.9048 220.6668,50.2408 C219.3258,54.1658 218.2048,58.1658 216.9658,62.1248 C212.0548,77.8318 207.1738,93.5468 202.1978,109.2318 C200.4588,114.7128 198.5548,120.1538 195.7668,125.2148 C194.8448,126.8878 193.8078,128.5248 192.6238,130.0208 C189.0108,134.5838 184.2258,136.2048 178.5548,135.2038 C172.3758,134.1128 166.5938,131.7818 160.8408,129.3778 C159.9648,129.0118 159.0718,128.6878 158.0598,128.2948 C157.6778,128.9998 157.3508,129.6218 157.0068,130.2348 C155.8078,132.3748 154.6258,132.7688 152.5118,131.5688 C150.2888,130.3068 148.0928,128.9898 145.9508,127.5968 C143.2948,125.8708 143.2778,125.7188 143.9168,122.5068 C138.5418,119.5928 133.1018,116.6448 127.3858,113.5458 C128.7828,124.2558 130.3228,134.6498 131.4468,145.0868 C132.5728,155.5388 133.2838,166.0348 134.1798,176.5398 C132.7758,176.8228 132.4708,175.9868 132.3508,175.0858 C132.0438,172.7918 131.7558,170.4918 131.5438,168.1868 C130.5758,157.6848 129.8998,147.1478 128.6158,136.6858 C127.2348,125.4308 125.2898,114.2468 123.6048,103.0288 C123.4698,102.1298 123.4388,101.2148 123.3528,100.2198 C124.8848,100.1788 125.0658,101.0218 125.2228,101.9028 C125.6558,104.3408 126.1798,106.7678 126.5008,109.2208 C126.6728,110.5458 127.1928,111.2948 128.4038,111.9398 C133.8288,114.8288 139.1838,117.8498 144.5298,120.8048 C145.9218,120.0618 146.4188,118.8408 146.8848,117.6948 C149.5938,111.0378 152.3838,104.4088 154.8518,97.6618 C156.6598,92.7168 157.9748,87.5928 159.6038,82.5798 C160.0208,81.2968 159.8038,80.5628 158.6818,79.7918 C147.3438,72.0158 136.0318,64.2028 124.7298,56.3748 C121.1828,53.9168 117.3698,52.7858 112.9958,53.1708 C108.2208,53.5918 103.4148,53.6508 98.6238,53.8828 C97.6048,53.9318 96.5898,54.0458 95.4668,54.1398 C95.2808,57.1188 95.2458,59.9168 94.8948,62.6738 C94.5328,65.5158 93.9068,68.3298 93.3028,71.1348 C93.1048,72.0578 92.6218,72.9218 92.2528,73.8068 C88.9258,81.7898 82.2158,82.4578 76.0178,80.2288 C71.0548,78.4438 67.2098,75.0248 64.0108,70.9648 C60.8978,67.0158 58.0788,62.8348 55.1348,58.7528 C54.8108,58.3038 54.5158,57.8338 54.0648,57.1628 C53.2778,57.4998 52.4988,57.8318 51.7218,58.1668 C43.4718,61.7318 36.0718,66.7778 28.5218,71.5518 C22.8758,75.1228 17.9028,79.5158 13.5548,84.5728 C7.3068,91.8388 3.5438,100.2928 3.3778,109.8788 C3.1538,122.8228 3.5318,135.7768 3.6588,148.7268 C3.6618,149.0378 3.7558,149.3468 3.8248,149.7538"
                                    id="Fill-3" blush:i="0.3.0.0.0.0.1.0" />
                            </g>
                        </g>
                    </g>
                </g>
                <g id="Head" transform="translate(250.000000, 368.000000) scale(1 1)" fill="#000"
                    blush:width="35" blush:height="57" blush:component="Head" blush:i="0.3.0.1"
                    blush:value="Low Pompadour"
                    blush:viewBox="-0.02850162866449324 0 39.6172638436482 56.999999999999986">
                    <g id="Head/Low Pompadour" stroke="none" stroke-width="1" fill="none"
                        fill-rule="evenodd"
                        blush:viewBox="-0.02850162866449324 0 39.6172638436482 56.999999999999986"
                        blush:i="0.3.0.1.0">
                        <path
                            d="M27.8320713,16.475193 L27.7800713,16.238193 C27.7160713,15.962193 27.3870713,15.171193 26.8550713,14.270193 C27.8250713,14.830193 28.3900713,15.759193 28.7150713,16.939193 C28.8850713,17.554193 29.1260713,18.150193 29.2860713,18.766193 C29.5910713,19.936193 30.0890713,20.900193 30.7090713,21.734193 C30.6570713,22.162193 30.6030713,22.591193 30.5460713,23.020193 C29.4990713,21.727193 28.5070713,19.689193 27.8320713,16.475193 M20.7020713,11.105193 C17.2690713,13.070193 14.7960713,11.665193 13.5770713,10.588193 C15.1640713,11.478193 16.6520713,11.473193 18.4170713,10.441193 C20.0190713,9.50319302 21.3630713,9.65819302 22.4440713,10.680193 C21.8560713,10.651193 21.2730713,10.778193 20.7020713,11.105193 M36.6040713,25.532193 C37.3250713,25.765193 38.2370713,25.409193 39.0610713,25.324193 C37.0940713,23.300193 37.0640713,23.165193 38.2710713,21.006193 C38.5050713,20.588193 38.7660713,20.181193 38.9580713,19.746193 C39.6380713,18.208193 39.5560713,17.341193 38.1460713,16.461193 C36.8000713,15.619193 36.6360713,14.508193 36.7720713,13.186193 C36.8710713,12.236193 37.0460713,11.293193 37.2010713,10.350193 C37.6490713,7.61819302 36.8660713,5.31119302 34.8560713,3.40419302 C32.6220713,1.28319302 30.0010713,0.257193018 26.8980713,0.0381930178 C21.4170713,-0.346806982 17.1470713,2.23519302 12.9900713,5.24319302 C12.5320713,7.12219302 10.7220713,7.36419302 9.37707129,7.99919302 C7.09307129,9.07919302 5.98907129,10.943193 5.57907129,13.190193 C5.20207129,15.250193 5.47207129,17.229193 6.00507129,19.251193 C5.97707129,19.505193 5.94707129,19.762193 5.90907129,20.026193 C5.44807129,19.945193 5.22007129,19.933193 5.01007129,19.864193 C2.10407129,18.903193 -0.107928707,20.537193 0.00407129252,23.596193 C0.0870712925,25.871193 1.17907129,27.627193 3.19407129,28.576193 C4.37407129,29.131193 4.64507129,29.777193 4.54207129,30.971193 C3.89307129,38.539193 2.66307129,46.013193 1.11607129,53.444193 C0.937071293,54.298193 1.09207129,55.223193 1.09207129,56.179193 C2.66507129,56.125193 2.60407129,55.150193 2.78207129,54.324193 C4.44807129,46.590193 5.72407129,38.797193 6.42507129,30.913193 C6.64407129,28.450193 6.61707129,28.375193 4.24807129,27.148193 C2.42507129,26.204193 1.36707129,24.175193 2.01707129,22.625193 C2.23807129,22.097193 2.78007129,21.445193 3.26507129,21.361193 C3.69507129,21.287193 4.29607129,21.867193 4.73107129,22.258193 C5.01107129,22.509193 6.31607129,23.883193 6.81507129,24.179193 C7.00507129,23.799193 7.27407129,23.432193 7.40907129,23.043193 C7.86207129,22.438193 8.20807129,22.069193 8.38407129,21.646193 C9.30207129,19.437193 10.1960713,17.218193 11.0360713,14.979193 C11.5960713,13.486193 12.0690713,11.950193 12.6100713,10.317193 C13.5200713,11.331193 16.5420713,14.063193 20.9500713,11.538193 C21.6070713,11.163193 22.2820713,11.080193 22.9630713,11.261193 C23.1190713,11.466193 23.2700713,11.689193 23.4130713,11.934193 C23.9780713,12.902193 24.6880713,13.581193 25.7420713,13.835193 C25.8530713,13.862193 25.9510713,13.900193 26.0550713,13.932193 C26.7770713,15.021193 27.2280713,16.075193 27.2940713,16.353193 L27.3430713,16.578193 C28.0950713,20.157193 29.2460713,22.346193 30.4500713,23.678193 C29.8060713,28.170193 28.7760713,32.578193 26.7280713,36.744193 C25.3710713,39.504193 23.9480713,40.119193 20.9250713,39.187193 C18.7010713,38.501193 16.5810713,37.594193 14.7840713,36.048193 C14.2690713,35.606193 13.6240713,34.861193 12.9780713,35.716193 C12.3880713,36.496193 13.1430713,37.064193 13.7020713,37.476193 C14.6610713,38.183193 15.6430713,38.890193 16.7020713,39.427193 C19.3540713,40.770193 22.1180713,41.746193 25.1430713,41.188193 C25.4200713,41.996193 25.6510713,42.588193 25.8270713,43.197193 C26.8840713,46.880193 27.9060713,50.573193 28.9930713,54.247193 C29.2630713,55.160193 29.2000713,56.361193 31.0970713,56.835193 C30.9520713,55.742193 30.9370713,54.971193 30.7390713,54.251193 C29.6410713,50.249193 28.4750713,46.266193 27.3880713,42.261193 C27.1500713,41.388193 26.6420713,40.537193 27.2780713,39.527193 C29.7930713,35.541193 30.9910713,31.078193 31.8480713,26.499193 C31.9390713,26.006193 32.0250713,25.513193 32.1100713,25.020193 C32.4560713,25.210193 32.7930713,25.353193 33.1120713,25.451193 C35.8680713,26.296193 38.6810713,26.306193 38.8000713,26.306193 L38.8000713,25.806193 C38.7710713,25.806193 35.9430713,25.796193 33.2590713,24.972193 C32.9240713,24.870193 32.5670713,24.718193 32.2020713,24.499193 C32.2620713,24.139193 32.3150713,23.779193 32.3710713,23.418193 C33.5830713,24.349193 35.0270713,25.023193 36.6040713,25.532193"
                            id="Fill-1" fill="#000" blush:i="0.3.0.1.0.0" />
                    </g>
                </g>
                <g id="Face" transform="translate(264.000000, 380.000000) scale(1 1)" fill="#000"
                    blush:width="18" blush:height="18" blush:component="Face" blush:i="0.3.0.2"
                    blush:value="Happy"
                    blush:viewBox="0 0.9900000000000002 17.639999999999997 16.739999999999995">
                    <g id="Face/Happy" stroke="none" stroke-width="1" fill="none"
                        fill-rule="evenodd"
                        blush:viewBox="0 0.9900000000000002 17.639999999999997 16.739999999999995"
                        blush:i="0.3.0.2.0">
                        <g id="Happy" fill="#000" blush:i="0.3.0.2.0.0">
                            <polygon id="Fill-1"
                                points="9.6244 5.4505 11.1524 11.4955 8.9234 11.7185"
                                blush:i="0.3.0.2.0.0.0" />
                            <g id="Group-22" transform="translate(0.000000, 0.652400)"
                                blush:i="0.3.0.2.0.0.1">
                                <path
                                    d="M9.6283,4.8567 L8.9363,11.0537 L11.1393,10.8337 L9.6283,4.8567 Z M8.9233,11.0767 C8.9213,11.0767 8.9183,11.0757 8.9163,11.0737 C8.9143,11.0707 8.9133,11.0677 8.9133,11.0647 L9.6133,4.7967 C9.6143,4.7917 9.6183,4.7877 9.6233,4.7877 C9.6283,4.7877 9.6333,4.7907 9.6343,4.7947 L11.1623,10.8397 C11.1633,10.8427 11.1623,10.8467 11.1613,10.8487 C11.1593,10.8517 11.1563,10.8527 11.1533,10.8537 L8.9253,11.0767 L8.9233,11.0767 Z"
                                    id="Fill-2" blush:i="0.3.0.2.0.0.1.0" />
                                <path
                                    d="M7.8626,0.3586 C7.8626,0.3586 7.9546,2.2096 7.5446,2.5976 C5.8246,2.4076 1.9526,3.0466 0.0106,3.9036 C0.7746,2.1306 7.8626,0.3586 7.8626,0.3586"
                                    id="Fill-4" blush:i="0.3.0.2.0.0.1.1" />
                                <g id="Group-8" blush:i="0.3.0.2.0.0.1.2">
                                    <path
                                        d="M7.8524,0.3713 C7.6894,0.4133 5.9904,0.8483 4.2264,1.4753 C1.8134,2.3353 0.3654,3.1663 0.0314,3.8823 C1.9254,3.0563 5.7694,2.3923 7.5404,2.5873 C7.9214,2.2163 7.8594,0.5363 7.8524,0.3713 M0.0104,3.9143 C0.0074,3.9143 0.0054,3.9123 0.0034,3.9103 C-0.0006,3.9073 -0.0006,3.9033 0.0004,3.8983 C0.3184,3.1613 1.7384,2.3393 4.2194,1.4563 C6.0664,0.7993 7.8424,0.3523 7.8594,0.3483 C7.8634,0.3473 7.8664,0.3483 7.8684,0.3503 C7.8714,0.3513 7.8734,0.3543 7.8734,0.3573 C7.8764,0.4333 7.9614,2.2183 7.5514,2.6053 C7.5494,2.6073 7.5454,2.6093 7.5424,2.6083 C5.7684,2.4113 1.8994,3.0823 0.0154,3.9133 C0.0134,3.9133 0.0124,3.9143 0.0104,3.9143"
                                        id="Fill-6" blush:i="0.3.0.2.0.0.1.2.0" />
                                </g>
                                <path
                                    d="M4.8997,8.6438 C4.3457,8.6778 3.7937,8.5748 3.2787,8.4048 C3.4687,8.4608 3.6717,8.4918 3.8827,8.4918 C4.9357,8.4918 5.7927,7.7398 5.7927,6.8168 C5.7927,6.4448 5.5037,5.9998 5.2307,5.6918 C6.5807,5.8158 7.7657,6.5188 8.2027,6.8078 C7.8117,7.2718 6.5937,8.5398 4.8997,8.6438 M2.0237,6.3568 C1.9927,6.5158 1.9737,6.6898 1.9737,6.8168 C1.9737,7.4868 2.4247,8.0658 3.0737,8.3328 C2.0807,7.9648 1.2587,7.3728 0.9077,7.0968 C1.1117,6.9228 1.4927,6.6308 2.0237,6.3568 M8.6377,6.5928 C8.5667,6.5398 6.8727,5.2738 4.8837,5.2478 C2.1497,5.2168 0.5007,6.8868 0.4307,6.9578 C0.3907,6.9988 0.3697,7.0558 0.3717,7.1138 C0.3737,7.1708 0.3997,7.2258 0.4427,7.2638 C0.5297,7.3408 2.5167,9.0748 4.6817,9.0748 C4.7627,9.0748 4.8447,9.0718 4.9257,9.0668 C7.1967,8.9258 8.6227,6.9688 8.6827,6.8858 C8.7497,6.7918 8.7297,6.6628 8.6377,6.5928"
                                    id="Fill-9" blush:i="0.3.0.2.0.0.1.3" />
                                <path
                                    d="M14.221,8.217 C13.735,8.251 13.248,8.132 12.802,7.946 C12.879,7.961 12.957,7.971 13.035,7.971 C13.884,7.971 14.573,7.281 14.573,6.433 C14.573,6.062 14.443,5.714 14.209,5.439 C14.303,5.433 14.399,5.43 14.495,5.43 L14.496,5.43 C15.566,5.43 16.546,6.185 16.889,6.482 C16.584,6.905 15.595,8.118 14.221,8.217 M11.018,6.776 C11.129,6.681 11.296,6.548 11.511,6.402 C11.553,6.758 11.706,7.116 11.948,7.407 C12.013,7.487 12.083,7.556 12.156,7.619 C11.641,7.315 11.231,6.969 11.018,6.776 M17.318,6.298 C17.264,6.245 15.997,5.006 14.496,5.006 L14.495,5.006 C12.172,5.006 10.62,6.558 10.555,6.624 C10.474,6.706 10.474,6.838 10.554,6.921 C10.573,6.94 11.013,7.389 11.684,7.826 C12.519,8.371 13.313,8.647 14.046,8.647 C14.115,8.647 14.183,8.645 14.251,8.64 C16.129,8.505 17.3,6.639 17.349,6.56 C17.401,6.476 17.388,6.367 17.318,6.298"
                                    id="Fill-11" blush:i="0.3.0.2.0.0.1.4" />
                                <path
                                    d="M10.8109,0.3586 C10.8109,0.3586 10.7179,2.2096 11.1289,2.5976 C12.8479,2.4076 15.6169,2.8636 17.5589,3.7196 C16.7949,1.9476 10.8109,0.3586 10.8109,0.3586"
                                    id="Fill-13" blush:i="0.3.0.2.0.0.1.5" />
                                <g id="Group-17" transform="translate(10.000000, 0.000000)"
                                    blush:i="0.3.0.2.0.0.1.6">
                                    <path
                                        d="M1.9872,2.5442 C3.7012,2.5442 5.9272,2.9942 7.5382,3.6992 C7.2082,2.9832 5.9502,2.1842 3.8942,1.3842 C2.3992,0.8032 0.9702,0.4122 0.8202,0.3722 C0.8142,0.5382 0.7522,2.2162 1.1332,2.5872 C1.3972,2.5582 1.6842,2.5442 1.9872,2.5442 M7.5582,3.7312 C7.5572,3.7312 7.5552,3.7312 7.5542,3.7302 C5.6592,2.8952 2.8982,2.4122 1.1302,2.6082 C1.1272,2.6092 1.1242,2.6072 1.1222,2.6062 C0.9492,2.4422 0.8432,2.0152 0.8052,1.3332 C0.7772,0.8272 0.8002,0.3622 0.8002,0.3572 C0.8002,0.3552 0.8022,0.3522 0.8042,0.3502 C0.8072,0.3482 0.8102,0.3472 0.8142,0.3482 C0.8282,0.3522 2.3282,0.7522 3.9022,1.3642 C5.3562,1.9302 7.1722,2.7972 7.5682,3.7162 C7.5702,3.7202 7.56924052,3.7252 7.5662,3.7282 C7.5642,3.7302 7.5612,3.7312 7.5582,3.7312"
                                        id="Fill-15" blush:i="0.3.0.2.0.0.1.6.0" />
                                </g>
                                <path
                                    d="M5.974,13.3127 C7.031,14.3127 7.89,14.8687 9.322,14.9637 C10.754,15.0597 11.757,14.5357 11.757,14.5357 C11.757,14.5357 10.611,16.4807 9.226,16.8417 C6.362,17.5907 6.497,15.3437 5.974,13.3127"
                                    id="Fill-18" blush:i="0.3.0.2.0.0.1.7" />
                                <path
                                    d="M5.993,13.3459 C6.075,13.6659 6.14,13.9919 6.203,14.3069 C6.411,15.3389 6.607,16.3149 7.294,16.7429 C7.744,17.0249 8.375,17.0539 9.223,16.8319 C10.493,16.4999 11.575,14.8109 11.729,14.5609 C11.544,14.6489 10.597,15.0589 9.321,14.9749 C7.881,14.8779 7.035,14.3279 5.993,13.3459 M8.224,16.9999 C7.849,16.9999 7.537,16.9199 7.283,16.7609 C6.588,16.3269 6.391,15.3479 6.182,14.3109 C6.117,13.9849 6.049,13.6469 5.964,13.3159 C5.962,13.3109 5.965,13.3069 5.969,13.3039 C5.972,13.3019 5.978,13.3019 5.981,13.3059 C7.033,14.2999 7.876,14.8569 9.323,14.9529 C10.736,15.0479 11.742,14.5319 11.752,14.5269 C11.757,14.5239 11.762,14.5249 11.764,14.5289 C11.768,14.5319 11.768,14.5369 11.766,14.5409 C11.755,14.5609 10.602,16.4929 9.229,16.8529 C8.853,16.9499 8.519,16.9999 8.224,16.9999"
                                    id="Fill-20" blush:i="0.3.0.2.0.0.1.8" />
                            </g>
                        </g>
                    </g>
                </g>
                <g id="Glasses" transform="translate(261.000000, 385.000000) scale(1 1)"
                    blush:width="24" blush:height="8" blush:component="Glasses" blush:i="0.3.0.3"
                    blush:value="None" blush:viewBox="42 14 0 0">
                    <g id="Glasses/None" stroke="none" stroke-width="1" fill="none"
                        fill-rule="evenodd" fill-opacity="0" blush:viewBox="42 14 0 0"
                        blush:i="0.3.0.3.0" />
                </g>
            </g>
        </g>
        <g
            transform="translate(655.500000, 382.394682) scale(-1, 1) translate(-655.500000, -382.394682) translate(372.000000, 94.000000) scale(1 0.99963431542461)"
            fill="#000" blush:width="567" blush:height="576.789" id="Master/Character/Torso"
            blush:component="Master/Character/Torso" blush:i="0.4" blush:value="Torso"
            blush:viewBox="137.70824847250503 366.3950000000001 274.26171079429747 155.79">
            <g id="Master/Character/Torso" stroke="none" stroke-width="1" fill="none"
                fill-rule="evenodd"
                blush:viewBox="137.70824847250503 366.3950000000001 274.26171079429747 155.79"
                blush:i="0.4.0">
                <g id="Torso" transform="translate(139.000000, 391.000000) scale(1 1)"
                    blush:width="289" blush:height="186" blush:component="Torso" blush:i="0.4.0.0"
                    blush:value="Drinking Tea Color"
                    blush:viewBox="43.349999999999966 30.903726708074544 182.07 114.083850931677">
                    <g id="Torso/Drinking Tea Color" stroke="none" stroke-width="1" fill="none"
                        fill-rule="evenodd"
                        blush:viewBox="43.349999999999966 30.903726708074544 182.07 114.083850931677"
                        blush:i="0.4.0.0.0">
                        <path
                            d="M93.8669513,101.723878 C93.8669513,101.723878 100.099999,111.479493 101.012985,115.659072 C101.155308,116.310614 96.0863704,118.660634 96.1446335,119.279924 C96.4415363,122.435761 95.423336,123.568756 92.3655,125.3955 C86.7771496,128.733968 82.0425,132.6435 76.7015,135.9845 C72.4865,138.6215 67.9005,140.5245 62.8725,141.1645 C59.7345,141.5635 56.6335,141.4195 53.5895,140.6495 C49.3605,139.5815 47.2765,136.8055 46.9285,132.3615 C46.3285,124.6955 47.8445,117.4055 50.6975,110.3525 C51.5175,108.3265 51.7165,105.9395 53.7655,104.5315 C53.9785,104.3845 54.0945,103.9665 54.1015,103.6695 C54.1885,100.0725 55.7635,96.8705 56.7585,93.5135 C58.7795,86.6945 60.7905,79.8715 62.7205,73.0275 C64.3365,67.2985 66.8575,61.9545 69.5125,56.6705 C70.7875,54.1335 74.2035,52.4193308 76.7015,50.9543308 C76.7767121,50.9102214 81.7328733,46.6828916 82.5957554,46.2552204 C89.3621906,42.9015643 114.1274,34.6895675 114.846675,35.3511943 C117.846675,38.1111943 120.124999,39.0102685 124.120999,39.9022685 C130.768999,41.3832685 135.745096,39.0905 140.282096,33.9435 C141.669096,32.3705 143.3925,33.4855 145.4255,33.7765 C147.3855,34.0575 159.206638,35.3851943 161.200638,35.3511943 C164.874638,35.2881943 177.3105,41.744321 180.2175,44.138321 C184.6325,47.774321 188.99252,51.9355 191.77552,56.6705 C194.80952,61.8345 208.863782,85.3922921 209.882782,87.5672921 C208.866924,87.3819382 208.379094,86.5412443 196.422262,82.2594517 C193.791527,81.3173741 192.846864,77.6498311 189.305913,77.6498297 C173.2311,77.6498233 146.636493,66.8275924 144.337651,66.0125 C142.841651,65.4815 146.048118,61.7858648 144.245118,61.3488648 C141.540118,60.6928648 134.056707,57.0993989 127.592707,58.4123989 C127.044707,58.5233989 113.6285,59.9158648 113.5475,61.3488648 C113.4715,62.7038648 112.501291,90.3425 112.544291,91.6995 C112.589291,93.0915 108.795353,75.8166577 107.490305,75.0716631 C106.185257,74.3266686 105.030443,76.1462433 105.030443,78.3235 C105.030443,83.9014169 103.241021,98.9394927 101.012985,97.7672053 C98.7849489,96.5949179 93.8669513,101.723878 93.8669513,101.723878 Z"
                            id="Fill-4" fill="#5348e4" blush:i="0.4.0.0.0.0" />
                        <path
                            d="M89.8963986,129.804169 C90.3153986,129.424169 96.8200714,122.114416 96.8500714,119.146416 C96.8670714,117.453416 105.487847,111.924789 114.847364,109.794536 C131.477876,106.009383 156.828005,104.293002 156.650416,103.309704 C155.818682,98.7044442 145.679651,98.7044442 144.337651,98.4344442 C146.352651,97.9854442 152.754619,95.7716479 154.717619,95.1566479 C157.717619,94.2176479 164.584937,94.9351373 164.678937,96.0491373 C164.918937,98.9131373 164.868569,127.312272 163.949569,127.576272 C162.415569,128.016272 160.933428,128.608267 159.365428,128.861267 C153.363428,129.829267 147.281553,130.933908 141.189553,130.766908 C138.076553,130.681908 129.572564,130.140169 126.478564,129.804169 C122.867019,129.411803 117.363861,129.81068 100.306212,130.766908 C98.0754801,130.891959 94.6055422,130.571046 89.8963986,129.804169 Z"
                            id="Fill-6" fill="#5348e4" blush:i="0.4.0.0.0.1" />
                        <path
                            d="M192.0211,80.6538 C195.1881,82.5018 198.3191,84.4128 201.4411,86.3378 C202.8701,87.2198 204.2671,87.9998 205.9851,88.3518 C207.2211,88.6058 208.4861,89.4528 209.4071,90.3668 C211.7791,92.7258 214.1311,95.1408 216.1971,97.7648 C220.3691,103.0628 221.7761,109.3548 221.9741,115.9318 C222.0781,119.4158 220.5791,121.2028 217.3041,122.3198 C213.8301,123.5058 210.3791,123.2888 206.9461,122.2028 C202.1751,120.6928 197.8171,118.3518 193.8651,115.3148 C189.8151,112.2028 174.849684,102.67884 172.772684,101.71184 C170.133684,100.48384 172.7141,99.9898 173.6611,97.2588 C175.3331,92.4328 176.9861,87.5998 178.5541,82.7388 C179.8921,78.5928 179.8761,78.5428 184.6071,78.6888 C187.0391,78.5038 189.6281,79.2588 192.0211,80.6538 Z"
                            id="Fill-8" fill="#5348e4" blush:i="0.4.0.0.0.2" />
                        <path
                            d="M143.992683,31.496119 C143.723802,31.5008878 143.512242,31.5031788 143.337575,31.5031788 C142.301214,31.5031788 141.371123,31.9057804 140.391152,32.6719913 L140.232265,32.8028918 C139.39043,33.5218857 137.229357,35.6668183 137.354092,35.549607 C134.841865,37.9103139 132.507656,39.053518 129.093167,39.053518 C123.608943,39.053518 118.34213,36.6463734 113.264959,31.7811615 C112.958805,31.4877889 112.500914,31.4193942 112.122395,31.610498 L111.660073,31.8356623 C109.062256,33.0610743 103.590941,35.0624206 95.2875825,37.8202967 L92.0135571,38.9001594 C82.2341092,42.143022 76.6503444,45.0716346 75.1197633,47.9902193 L75.025,48.181 L74.9273253,48.2284211 C67.0358459,52.1405599 59.5187241,70.0785646 52.007971,102.283314 L51.803,103.163 L51.298919,104.148267 C43.3757717,119.829502 42.1387315,131.775396 47.7648309,139.936367 C47.8148732,140.008956 47.8742955,140.074609 47.9415523,140.131617 L48.2089936,140.353727 C56.9091837,147.43205 70.5707069,144.35298 89.1222964,131.441022 L89.893,130.899 L89.9321209,130.908269 C93.9744594,131.823531 98.0614962,131.819622 106.70017,131.155411 L111.642933,130.75685 C119.475478,130.139894 123.771886,130.080054 127.777852,130.75871 L128.418221,130.869537 C136.081546,132.14411 148.51699,131.322614 165.78091,128.423256 L166.526,128.297 L166.679402,128.29205 C167.730289,128.22965 167.811918,127.547801 167.818107,121.125747 L167.816322,118.45774 C167.799645,113.805112 167.691557,107.323744 167.492089,99.0117258 L167.475,98.316 L170.965,99.654 L170.829872,100.762233 C170.772411,101.230981 171.050711,101.676028 171.497309,101.829575 C172.495465,102.172753 174.212914,103.228832 176.977105,105.173799 L178.424076,106.204834 C179.627086,107.078784 186.77163,112.299889 189.224031,114.032843 C191.441228,115.599594 193.475414,116.987423 195.415651,118.247368 L196.05904,118.662683 C202.585464,122.849999 207.91977,125.479105 212.234251,126.367343 C217.647977,127.481886 221.423019,125.755256 222.935139,120.828608 C225.90113,111.165096 223.75713,103.952386 217.896357,96.8638879 L217.440527,96.3204629 C217.131659,95.9574213 216.809189,95.588472 216.451292,95.1872684 L214.227887,92.7306148 L214.107873,92.5951988 C212.996444,91.3366756 212.395548,90.5044363 212.151407,89.8510319 L212.014533,89.451344 C210.235246,84.5333453 197.596542,62.269669 189.019013,48.4261739 C187.618309,46.1655413 186.108898,44.2760549 184.479612,42.6939085 C182.689775,40.9558556 180.806733,39.6280839 178.676259,38.5040239 C177.969272,38.1310102 177.256565,37.7901454 176.436667,37.4264619 L175.783301,37.1418856 C175.198059,36.8916993 173.992721,36.3820816 173.664466,36.2384281 C172.115987,35.5607709 171.172955,35.0306581 170.45958,34.3842592 L170.310092,34.2438691 C168.481614,32.463954 163.894701,31.6609863 156.952861,31.4239262 L156.47591,31.4086351 C153.916023,31.3318061 151.381329,31.3352318 148.311632,31.3958606 L143.992683,31.496119 Z M156.415912,33.407735 L157.285369,33.4375425 C163.42706,33.6750974 167.630933,34.4269865 168.915038,35.676986 C169.801778,36.5401747 170.858555,37.1723485 172.521774,37.9195751 L173.632978,38.4006164 C174.236342,38.6573652 174.976564,38.970941 175.220621,39.0769331 C176.179419,39.4933318 176.968495,39.8642929 177.742973,40.2729157 C179.712398,41.3120043 181.440457,42.5304947 183.086307,44.1287261 C184.596435,45.5951618 186.003314,47.3562983 187.318909,49.4795708 L188.644006,51.6324996 C197.036613,65.3536522 208.490501,85.6121564 210.112238,90.0689715 L210.203097,90.3343618 C210.508081,91.2974275 211.16453,92.2581051 212.37522,93.6524596 L212.997751,94.3550776 L214.403158,95.9010015 L214.955342,96.514741 C215.478135,97.100735 215.920735,97.6131 216.354974,98.1383042 C221.822048,104.750632 223.768264,111.297968 221.02317,120.241773 C219.843724,124.084533 217.118592,125.330956 212.63754,124.408425 C208.742138,123.606465 203.776098,121.191746 197.694955,117.334031 L197.13905,116.979359 C195.243421,115.763135 193.260755,114.423511 191.103784,112.910365 L189.136566,111.513181 C185.886203,109.17833 179.883311,104.78947 179.441974,104.472637 L178.076213,103.501284 C175.816952,101.911951 174.228352,100.894846 173.056209,100.322675 L172.907,100.251 L173.045903,99.1220525 C173.101772,98.6662879 172.840076,98.231044 172.411334,98.0666582 L166.796816,95.9139744 C166.132023,95.6590837 165.42137,96.1608721 165.439125,96.8726327 L165.619242,104.668957 C165.724748,109.700977 165.788373,113.892814 165.810127,117.243873 L165.818604,119.685279 C165.818604,122.059188 165.790783,123.871762 165.735572,125.117846 L165.71327,125.564049 C165.701322,125.775832 165.688433,125.965285 165.674738,126.131794 L165.648,126.416 L163.844877,126.716628 C147.623007,129.364427 135.909844,130.086157 128.756543,128.898347 L127.820143,128.738598 C123.594077,128.05941 119.098321,128.15093 110.938888,128.806543 L107.060623,129.121362 C97.9530973,129.833371 93.9286045,129.8307 89.9227682,128.85143 C89.6408936,128.782522 89.3429872,128.839451 89.1063826,129.007439 L88.5481035,129.401912 C70.3638895,142.188384 57.3638876,145.211268 49.4746494,138.805002 L49.336,138.69 L49.4114598,138.801196 C44.1711079,131.199773 45.5165499,119.607064 53.6374589,103.969944 C53.6762061,103.895335 53.7053901,103.816137 53.7243203,103.734226 L54.1787893,101.785635 C61.6026658,70.2472409 69.0672171,52.8516308 76.1929556,49.8472097 C76.4600933,49.7345765 76.6652021,49.5115542 76.755126,49.2359413 C77.4891815,46.9860918 82.8497122,44.0469628 92.6615959,40.7924223 L97.0562398,39.3391841 C104.113629,36.9804485 109.012176,35.1977064 111.779033,33.9782485 L112.388,33.702 L112.658874,33.9507999 C117.857694,38.6712823 123.343787,41.053518 129.093167,41.053518 C132.944416,41.053518 135.677538,39.7799831 138.428774,37.2796725 L138.786405,36.9442479 C139.163778,36.5691838 141.113255,34.6461566 141.623047,34.2475654 C142.281663,33.7326125 142.811701,33.5031788 143.337575,33.5031788 L145.321367,33.4665387 L146.902649,33.4272491 C150.61685,33.3384027 153.505895,33.3203976 156.415912,33.407735 Z"
                            id="Path-135" fill="#000" fill-rule="nonzero" blush:i="0.4.0.0.0.3" />
                        <path
                            d="M72.1281628,102.786936 C78.1579868,101.222434 83.8084856,101.301681 88.5446499,103.581554 C88.6883143,103.65071 88.8128252,103.752948 88.9083498,103.879191 L88.9744047,103.978232 L97.1528354,117.980134 C97.2219144,118.098401 97.2659624,118.229597 97.2822481,118.365589 C97.8007526,122.695282 95.4133354,126.773947 90.2799585,130.570822 C89.8359334,130.899243 89.2097424,130.805527 88.8813216,130.361502 C88.5529008,129.917477 88.6466165,129.291286 89.0906415,128.962865 C93.5886294,125.635952 95.6165069,122.277805 95.3228146,118.859859 L95.316,118.802 L87.405,105.257 L87.2885472,105.203217 C83.2462336,103.394792 78.3869039,103.314225 73.1394661,104.594683 L72.6304524,104.722835 C68.7957761,105.717782 64.9291414,107.44096 62.8903831,108.77119 L62.6714711,108.91732 C60.7184007,110.252636 58.2041861,111.370713 55.1281001,112.280443 C54.5984907,112.437071 54.0421854,112.13471 53.8855574,111.6051 C53.7289293,111.075491 54.0312905,110.519185 54.5608999,110.362557 C57.269632,109.56147 59.484583,108.601694 61.2051539,107.490557 L61.5426762,107.266313 C63.7057393,105.787425 67.9289384,103.876469 72.1281628,102.786936 Z"
                            id="Path-136" fill="#000" fill-rule="nonzero" blush:i="0.4.0.0.0.4" />
                        <path
                            d="M88.0167696,87.5714671 C88.5667529,87.5211006 89.0534326,87.9261201 89.1037991,88.4761034 C89.5846217,93.7265071 89.1965906,98.828462 87.93911,103.777081 C87.803093,104.312354 87.2589045,104.636016 86.7236309,104.499999 C86.1883573,104.363982 85.8646958,103.819793 86.0007128,103.284519 C87.2017255,98.5581218 87.5723975,93.68441 87.1121333,88.6584966 C87.0617668,88.1085133 87.4667863,87.6218336 88.0167696,87.5714671 Z"
                            id="Path-137" fill="#000" fill-rule="nonzero" blush:i="0.4.0.0.0.5" />
                        <path
                            d="M90.7475129,87.8968151 C91.1178115,87.4870623 91.7501681,87.4550782 92.159921,87.8253768 C92.5696739,88.1956754 92.6016579,88.828032 92.2313593,89.2377849 C90.2606049,91.4185178 89.3033531,93.0978255 89.3033531,94.1566479 C89.3033531,94.7089327 88.8556378,95.1566479 88.3033531,95.1566479 C87.7510683,95.1566479 87.3033531,94.7089327 87.3033531,94.1566479 C87.3033531,92.4637419 88.4701566,90.4168176 90.7475129,87.8968151 Z"
                            id="Path-138" fill="#000" fill-rule="nonzero" blush:i="0.4.0.0.0.6" />
                        <path
                            d="M104.58697,76.9865001 C104.998803,74.941473 105.945054,73.7609788 107.624848,73.9250353 C109.853988,74.1427437 110.910715,77.6348242 111.983294,85.1920859 L112.21307,86.8910847 C112.423775,88.5808008 113.203389,94.8985594 113.448364,96.3511695 L113.524496,96.7587462 C113.630342,97.2855199 113.725226,97.6200847 113.732524,97.629373 C114.068017,98.0564007 117.379506,98.9415529 121.43323,99.5111553 L121.763493,99.5566325 C126.765511,100.231333 131.999676,100.391297 136.006109,99.8842146 C136.472336,99.8252057 136.938629,99.7634945 137.410726,99.6985052 L138.823571,99.4970798 L142.993576,98.8552877 C144.659711,98.6017874 145.704774,98.473343 146.603395,98.4279964 C149.01817,98.306141 150.433428,98.8830601 150.953351,100.592997 C151.633195,102.828889 147.996439,104.302363 140.469981,106.056119 C135.3113,107.258155 128.661533,108.395599 123.234434,109.050174 L122.289955,109.160589 C115.597207,109.917342 107.107522,113.241642 96.8500714,119.146416 C96.3714283,119.421951 95.7600466,119.257298 95.4845123,118.778655 C95.2089779,118.300012 95.3736301,117.68863 95.8522733,117.413096 C106.103586,111.511855 114.682183,108.112588 121.615411,107.227417 L122.065245,107.173253 C127.574744,106.550291 134.63235,105.362781 140.016115,104.108298 L140.994459,103.875198 C143.543868,103.253761 145.611466,102.634865 147.059204,102.048296 C147.885719,101.713424 148.488414,101.396866 148.834771,101.123818 L148.904025,101.066861 L148.972,101.003 L148.936505,100.937427 C148.692021,100.532829 148.146356,100.373828 146.926529,100.415944 L146.704191,100.425455 C146.108042,100.455538 145.414804,100.529224 144.455144,100.662592 L142.978608,100.880886 L139.840585,101.367461 C139.34266,101.442723 138.878742,101.511031 138.406521,101.578427 C137.677403,101.682488 136.967488,101.778491 136.25724,101.868385 L135.580065,101.94633 C127.199629,102.819256 113.808096,100.962915 112.159836,98.8649511 C111.885725,98.5160528 111.719142,97.9722644 111.542585,97.0486139 L111.459863,96.5834104 C111.149929,94.6583594 110.224195,87.082541 110.180272,86.7561209 L110.020115,85.6082496 C109.155349,79.6303657 108.131083,75.9839924 107.430443,75.9155647 C107.052184,75.8786221 106.782467,76.2151074 106.547608,77.3813393 L106.475664,77.7759678 C106.321452,78.7195077 106.259456,79.8622626 106.218785,82.0450014 L106.170556,84.9457387 C106.156725,85.5922553 106.140984,86.0838848 106.116763,86.6534058 C106.03621,88.5474905 105.884882,90.1252819 105.621086,91.5446942 C104.669887,96.6628223 98.9224795,101.225629 88.4830207,105.410782 C87.9703959,105.616292 87.3882328,105.367326 87.1827228,104.854702 C86.9772128,104.342077 87.2261784,103.759914 87.7388031,103.554404 C97.5963405,99.6025412 102.866939,95.4182682 103.654756,91.1792537 C103.874374,89.9975502 104.012092,88.6724687 104.093488,87.1013749 L104.133168,86.2065883 C104.148942,85.7913154 104.160607,85.3898176 104.171182,84.8942802 L104.23144,81.4014875 C104.281526,79.1834735 104.366347,78.0820369 104.58697,76.9865001 Z"
                            id="Path-139" fill="#000" fill-rule="nonzero" blush:i="0.4.0.0.0.7" />
                        <path
                            d="M149.020188,98.7696055 C153.535831,97.759666 156.498117,99.0316124 157.423251,102.592868 C157.554588,103.098441 157.27468,103.619926 156.78075,103.789886 C152.797759,105.160421 149.526009,106.095717 146.957146,106.595756 C143.514177,107.265945 139.629647,107.780196 135.302529,108.139298 C134.877792,108.174546 134.452949,108.187976 133.976572,108.184407 L133.314808,108.170458 L131.834248,108.115626 C131.127471,108.095495 130.663018,108.10176 130.103122,108.140356 C129.552145,108.178337 129.0747,107.762471 129.036719,107.211494 C128.998738,106.660517 129.414604,106.183072 129.965581,106.145091 C130.736284,106.091964 131.331646,106.093074 132.409632,106.133901 L133.470476,106.174318 L133.655378,106.179161 C134.221779,106.192349 134.685259,106.183649 135.13712,106.146149 C139.394957,105.792797 143.207929,105.288019 146.57501,104.632603 C148.662811,104.226204 151.269383,103.510189 154.389649,102.48455 L155.17,102.224 L155.157597,102.196748 C154.350086,100.582151 152.640799,100.068016 149.749764,100.658641 L149.456711,100.721386 C148.917742,100.841929 148.383102,100.502727 148.262559,99.9637572 C148.142017,99.4247878 148.481219,98.8901479 149.020188,98.7696055 Z"
                            id="Path-140" fill="#000" fill-rule="nonzero" blush:i="0.4.0.0.0.8" />
                        <path
                            d="M171.820897,73.9202605 C171.351576,73.9209117 170.945838,74.2478371 170.845407,74.7062873 L170.553419,76.025339 C168.514514,85.1391761 166.580928,91.7426264 164.765912,95.8132065 C164.534438,96.3323394 164.781655,96.9397707 165.309858,97.1497243 L172.028201,99.8201741 C172.554281,100.029283 173.148889,99.7603869 173.339309,99.2272583 L174.491059,95.9636612 C177.699349,86.7511418 179.292231,81.0384659 179.292231,78.6494922 C179.292231,75.4575795 176.613915,73.913835 171.820897,73.9202605 Z M172.622,75.934 L172.736517,75.9386739 C175.918368,76.0780894 177.292231,77.0068515 177.292231,78.6494922 L177.290546,78.7714687 C177.229873,81.0351278 175.53127,86.9740945 172.218563,96.4020681 L171.802,97.578 L167.002,95.67 L167.132043,95.3551069 C168.847888,91.1101332 170.635069,84.8206261 172.503402,76.4699339 L172.622,75.934 Z"
                            id="Path-141" fill="#000" fill-rule="nonzero" blush:i="0.4.0.0.0.9" />
                        <path
                            d="M178.088068,76.3803631 C184.314114,75.0818834 189.653009,76.0248601 194.032447,79.2279809 C195.61899,80.3883789 197.094336,81.1596169 199.651066,82.231004 L202.04231,83.2108543 C207.65017,85.5375271 210.265925,87.2665416 213.103601,91.2054215 C213.42643,91.6535288 213.324871,92.2784958 212.876764,92.6013244 C212.428657,92.9241531 211.80369,92.8225947 211.480861,92.3744874 C208.913659,88.8110438 206.56352,87.2522694 201.286157,85.0623943 L199.237214,84.2251731 C196.452547,83.0724399 194.822021,82.249316 193.098704,81.0206411 L192.85175,80.8422779 C188.953601,77.9911714 184.192584,77.1502619 178.496394,78.3382369 C177.955742,78.4509931 177.42605,78.1041151 177.313294,77.5634632 C177.200538,77.0228113 177.547416,76.4931194 178.088068,76.3803631 Z"
                            id="Path-142" fill="#000" fill-rule="nonzero" blush:i="0.4.0.0.0.10" />
                        <path
                            d="M143.513579,66.064647 C143.395197,65.3536448 144.045106,64.7547158 144.744093,64.9306558 L145.324118,65.0826709 C149.474495,66.2089391 158.080653,69.286284 171.192246,74.3285158 C171.707728,74.5267509 171.964907,75.1053326 171.766672,75.6208142 C171.568437,76.1362958 170.989855,76.3934749 170.474374,76.1952398 L165.577235,74.3239028 C156.244199,70.7824216 149.67995,68.4484724 145.908681,67.328784 L145.743,67.28 L146.118,69.528 L146.381566,69.5375541 L146.881774,69.5634455 C148.888102,69.6961702 149.921435,70.1491697 149.997954,71.2871502 L150.002545,71.4270191 C150.002545,72.6288276 148.636967,73.6260334 145.706577,75.0526338 C143.369289,76.1904946 140.158863,76.2352867 134.531033,75.5530871 L132.562662,75.299465 L129.350099,74.867952 C125.122226,74.3209635 123.370587,74.2282539 121.79383,74.507639 C119.873721,74.8478626 119.52228,75.6835195 120.770331,78.206037 C121.032211,78.735341 120.7808,79.3751085 120.228628,79.5845125 C116.101455,81.1496888 115.81183,82.5985723 119.039354,85.093214 C119.385158,85.3604957 119.517324,85.8213835 119.365716,86.2313045 C118.368365,88.9279651 119.044296,90.261057 121.633681,90.816039 C122.378365,90.9756468 122.678421,91.8759115 122.1784,92.4503752 C120.684622,94.1665478 120.880574,94.9658246 122.965854,95.7340698 C128.831783,97.8951574 142.059013,98.5377441 149.22611,95.8243322 L149.617962,95.6701228 C154.109551,93.8326238 158.276541,93.192802 162.109677,93.7697536 C162.548537,93.8358094 162.967709,93.9967902 163.54316,94.2866204 L164.553606,94.8150115 C164.731343,94.9053467 164.854215,94.9628052 164.956062,95.0030323 L165.012,95.024 L165.043718,94.9968035 C165.300711,94.7856685 165.654552,94.7106007 165.984503,94.8168158 L166.093437,94.8589971 C166.596118,95.0877546 166.818177,95.6807029 166.58942,96.1833842 C166.208796,97.0197829 165.418521,97.2226044 164.578328,96.9843356 C164.26097,96.8943365 164.039204,96.8013676 163.56661,96.557059 L162.84032,96.173971 C162.336311,95.9105862 162.017728,95.7784422 161.811996,95.7474761 C158.360383,95.2279501 154.551214,95.8128302 150.375238,97.5212123 C142.79798,100.621051 128.683865,99.9720736 122.274455,97.6107606 C119.464236,96.5754377 118.561795,94.7267887 119.678915,92.5609305 L119.799,92.34 L119.648009,92.2763555 C117.334356,91.2532585 116.476205,89.2509098 117.178529,86.5251908 L117.261,86.224 L117.207163,86.1784928 C113.701182,83.1476102 114.132649,80.2439982 118.288589,78.2400897 L118.549,78.118 L118.485387,77.9480251 C117.432318,75.0250385 118.445944,73.1534116 121.232569,72.5789624 L121.444886,72.5383148 L121.882611,72.4687428 C123.593331,72.228787 125.462016,72.3474022 129.565359,72.8787634 L133.413952,73.3953075 L134.324914,73.5123766 C139.812437,74.1969889 142.915134,74.1871779 144.831147,73.2544064 L145.403236,72.9699314 C146.222528,72.553223 146.866696,72.1818851 147.331207,71.8606751 L147.479384,71.7554682 L147.595,71.667 L147.5403,71.6575606 C147.06048,71.5758757 146.395368,71.5283297 145.555337,71.5196373 L145.268862,71.5181854 C144.820703,71.5181854 144.432773,71.2211478 144.309381,70.8001775 L144.282441,70.6824248 L143.513579,66.064647 Z"
                            id="Path-143" fill="#000" fill-rule="nonzero" blush:i="0.4.0.0.0.11" />
                        <path
                            d="M119.99298,77.6570342 L121.905275,77.8801045 C130.110343,78.8109115 137.25527,79.2759406 143.337651,79.2759406 C143.889936,79.2759406 144.337651,79.7236558 144.337651,80.2759406 C144.337651,80.8282253 143.889936,81.2759406 143.337651,81.2759406 C136.700607,81.2759406 128.840754,80.7312605 119.755089,79.6428358 C119.206725,79.5771441 118.815442,79.0793536 118.881133,78.5309897 C118.942133,78.0217946 119.375707,77.6480415 119.876386,77.6498297 L119.99298,77.6570342 Z"
                            id="Path-144" fill="#000" fill-rule="nonzero" blush:i="0.4.0.0.0.12" />
                        <path
                            d="M117.924315,85.0869787 L119.385668,85.3241936 C129.750744,86.9596633 137.794392,87.2071125 143.492507,86.0821883 C144.034334,85.9752206 144.560286,86.3277436 144.667254,86.8695705 C144.774222,87.4113974 144.421698,87.9373493 143.879872,88.044317 C137.637321,89.2767239 128.885012,88.9425512 117.595313,87.0597325 C117.050552,86.968881 116.682585,86.4536154 116.773437,85.9088544 C116.857799,85.403005 117.30811,85.0495959 117.808176,85.0744305 L117.924315,85.0869787 Z"
                            id="Path-145" fill="#000" fill-rule="nonzero" blush:i="0.4.0.0.0.13" />
                        <path
                            d="M142.846831,90.0708279 C143.353481,89.8510003 143.942407,90.0835158 144.162235,90.5901659 C144.382063,91.0968159 144.149547,91.6857424 143.642897,91.90557 C139.13817,93.8601014 131.56944,94.0812026 120.865556,92.6289473 C120.318286,92.554696 119.934828,92.0508529 120.009079,91.5035822 C120.08333,90.9563116 120.587173,90.5728536 121.134444,90.6471048 L122.340029,90.8051536 C132.068457,92.0349447 138.925092,91.7724095 142.846831,90.0708279 Z"
                            id="Path-146" fill="#000" fill-rule="nonzero" blush:i="0.4.0.0.0.14" />
                        <path
                            d="M112.42092,60.8009453 C123.412657,56.7244457 134.240896,56.724421 144.858736,60.8050301 C145.208461,60.9394354 145.450324,61.2561809 145.493186,61.6216567 L145.499978,61.7451035 L145.422078,73.486968 C145.418414,74.0392406 144.967738,74.4839757 144.415466,74.4803118 C143.902641,74.4769095 143.48254,74.0880737 143.428076,73.5903627 L143.422122,73.4736995 L143.495,62.43 L143.011733,62.2541434 C133.593227,58.9066721 124.03057,58.9068312 114.28653,62.2579222 L113.768,62.439 L113.768646,96.7672053 C113.768646,97.2800411 113.382606,97.7027124 112.885267,97.7604775 L112.768646,97.7672053 C112.25581,97.7672053 111.833139,97.3811651 111.775374,96.8838264 L111.768646,96.7672053 L111.768646,61.7385416 C111.768646,61.3203698 112.028844,60.9463545 112.42092,60.8009453 Z"
                            id="Path-147" fill="#000" fill-rule="nonzero" blush:i="0.4.0.0.0.15" />
                        <path
                            d="M141.280337,63.4375286 C141.814717,63.298042 142.360994,63.6181664 142.500481,64.1525464 C142.639967,64.6869263 142.319843,65.2332031 141.785463,65.3726896 C133.107127,67.6379528 124.372423,67.6379528 115.597715,65.373383 C115.062952,65.2353718 114.741321,64.6899806 114.879332,64.1552177 C115.017343,63.6204548 115.562734,63.298824 116.097497,63.4368352 C124.543492,65.6165709 132.932317,65.6165709 141.280337,63.4375286 Z"
                            id="Path-148" fill="#000" fill-rule="nonzero" blush:i="0.4.0.0.0.16" />
                        <path
                            d="M93.4853084,101.142866 C93.9249548,100.878836 94.4860544,100.992174 94.7916265,101.388795 L94.8574356,101.485308 L102.459659,114.144078 C102.743998,114.617544 102.590681,115.231866 102.117216,115.516206 C101.67757,115.780235 101.11647,115.666898 100.810898,115.270277 L100.745089,115.173763 L93.1428659,102.514993 C92.8585263,102.041528 93.011843,101.427205 93.4853084,101.142866 Z"
                            id="Path-149" fill="#000" fill-rule="nonzero" blush:i="0.4.0.0.0.17" />
                        <path
                            d="M166.330947,65.6577819 C166.55956,65.1550352 167.152445,64.9328066 167.655192,65.1614203 C168.157938,65.390034 168.380167,65.9829187 168.151553,66.4856654 C167.227799,68.5171027 167.227739,70.9241379 168.187877,73.7496492 C168.365571,74.2725676 168.08571,74.8405254 167.562792,75.0182186 C167.039874,75.1959117 166.471916,74.9160514 166.294223,74.3931331 C165.180112,71.1145097 165.180185,68.1884333 166.330947,65.6577819 Z"
                            id="Path-150" fill="#000" fill-rule="nonzero" blush:i="0.4.0.0.0.18" />
                    </g>
                </g>
                <g id="Head" transform="translate(250.000000, 368.000000) scale(1 1)" fill="#000"
                    blush:width="35" blush:height="57" blush:component="Head" blush:i="0.4.0.1"
                    blush:value="Half Shave"
                    blush:viewBox="-0.02850162866449324 0 58.998371335504885 55.289999999999985">
                    <g id="Head/Half Shave" stroke="none" stroke-width="1" fill="none"
                        fill-rule="evenodd"
                        blush:viewBox="-0.02850162866449324 0 58.998371335504885 55.289999999999985"
                        blush:i="0.4.0.1.0">
                        <g id="Group-3" fill="#000" blush:i="0.4.0.1.0.0">
                            <path
                                d="M35.8401,9.568 C35.6171,9.582 35.3941,9.597 35.1701,9.611 C35.1701,11.599 35.1561,13.587 35.1741,15.574 C35.2001,18.598 35.8341,19.368 38.8121,19.874 C41.0921,20.261 43.4221,20.421 45.6641,20.955 C49.0301,21.757 50.2031,23.851 49.4251,27.22 C49.1011,28.619 48.6411,29.99 48.3881,31.401 C48.0821,33.107 48.4801,33.74 50.1351,34.265 C51.3481,34.65 52.6131,34.868 53.8541,35.168 C55.3511,35.53 56.4331,36.385 56.9881,37.849 C57.1761,38.342 57.3501,38.84 57.6351,39.627 C58.3631,36.251 57.6161,34.936 54.8121,34.169 C54.4271,34.064 54.0281,34.003 53.6521,33.873 C51.8501,33.251 51.0601,32.152 51.2531,30.243 C51.3561,29.227 51.6821,28.219 52.0051,27.24 C53.9921,21.228 52.1211,18.641 45.7201,18.614 C44.0441,18.607 42.3591,18.763 40.6961,18.624 C37.6631,18.371 36.4921,17.061 36.2621,14.028 C36.1491,12.539 35.9831,11.054 35.8401,9.568 M58.1871,44.253 C57.2361,44.371 56.2361,44.592 55.2331,44.603 C48.1171,44.679 41.0021,44.706 33.8871,44.762 C32.3941,44.774 30.9021,44.839 29.1281,44.887 C29.8631,47.804 30.5321,50.413 31.1741,53.028 C31.4691,54.228 31.4441,54.234 30.1721,55.269 C29.7911,54.347 29.3681,53.527 29.1111,52.659 C27.9751,48.831 26.8911,44.987 25.7751,41.153 C25.6221,40.63 25.3921,40.13 25.1601,39.52 C21.9051,40.157 19.1111,38.968 16.3981,37.578 C15.3451,37.039 14.4061,36.259 13.4711,35.519 C12.9721,35.125 12.4321,34.467 13.1081,33.942 C13.4421,33.683 14.3081,33.833 14.7841,34.083 C16.4731,34.964 18.0691,36.024 19.7601,36.901 C20.5251,37.299 21.4141,37.509 22.2731,37.664 C24.3821,38.043 25.5471,37.403 26.5521,35.507 C29.3841,30.169 30.1931,24.303 31.0141,18.443 C31.2021,17.099 31.2981,15.739 31.3631,14.383 C31.4211,13.208 31.3751,12.028 31.3751,10.689 C30.1281,10.589 29.0161,10.596 27.9431,10.396 C24.2551,9.708 20.5861,8.926 16.9011,8.23 C16.0531,8.07 14.0501,7.676 13.9431,7.4 C13.0661,7.21 10.4641,8.769 9.5021,10.904 C8.2021,13.788 7.6981,18.937 7.3901,20.665 C7.2931,21.211 7.1961,22.091 6.9031,22.603 C6.4111,22.279 6.0571,21.908 5.7481,21.416 C5.4771,20.984 5.2161,20.401 4.9271,20.172 C4.4761,19.816 3.7101,19.733 3.3151,19.855 C2.8511,19.998 2.3911,20.709 2.2551,21.255 C1.8281,22.964 2.7491,24.758 4.7181,25.386 C6.5341,25.965 6.8781,27.064 6.6771,28.644 C6.0421,33.632 5.4421,38.626 4.7221,43.602 C4.2871,46.603 3.6831,49.58 3.0961,52.556 C2.9521,53.286 2.5781,53.971 2.3061,54.687 C0.8241,54.401 0.8251,53.509 0.9821,52.627 C1.4711,49.877 2.0941,47.149 2.5101,44.388 C3.2731,39.336 3.9301,34.267 4.6141,29.203 C4.6781,28.737 4.6231,28.255 4.6231,27.711 C4.0201,27.384 3.3621,27.192 2.9421,26.766 C2.0591,25.874 1.0821,24.966 0.5411,23.869 C-0.2769,22.211 -0.2139,20.417 1.0461,18.903 C2.3221,17.37 3.9671,17.506 5.9431,18.244 C6.1421,17.089 6.3651,16.034 6.4991,14.968 C7.0931,10.236 9.3471,6.768 13.8581,4.844 C14.9221,4.391 15.8241,3.508 16.7281,2.736 C23.4791,-3.029 34.7111,0.891 36.5181,9.131 C36.7381,10.136 36.7581,11.187 36.8711,12.216 C36.9681,13.088 37.0101,13.969 37.1741,14.828 C37.5701,16.909 38.4221,17.718 40.5621,17.831 C42.4751,17.932 44.4021,17.778 46.3161,17.876 C47.5771,17.941 48.8821,18.089 50.0711,18.486 C52.6201,19.338 53.8941,21.385 53.5751,24.073 C53.4261,25.326 52.9211,26.533 52.6331,27.774 C52.4011,28.776 52.1791,29.791 52.0861,30.813 C51.9781,32.018 52.6731,32.75 53.7791,33.114 C54.0821,33.214 54.3991,33.274 54.7121,33.335 C57.7031,33.913 59.0961,35.541 58.8131,39.289 C58.6991,40.791 58.4411,42.281 58.1871,44.253"
                                id="Fill-1" blush:i="0.4.0.1.0.0.0" />
                        </g>
                    </g>
                </g>
                <g id="Face" transform="translate(264.000000, 380.000000) scale(1 1)" fill="#000"
                    blush:width="18" blush:height="18" blush:component="Face" blush:i="0.4.0.2"
                    blush:value="Happy"
                    blush:viewBox="0 0.9900000000000002 17.639999999999997 16.739999999999995">
                    <g id="Face/Happy" stroke="none" stroke-width="1" fill="none"
                        fill-rule="evenodd"
                        blush:viewBox="0 0.9900000000000002 17.639999999999997 16.739999999999995"
                        blush:i="0.4.0.2.0">
                        <g id="Happy" fill="#000" blush:i="0.4.0.2.0.0">
                            <polygon id="Fill-1"
                                points="9.6244 5.4505 11.1524 11.4955 8.9234 11.7185"
                                blush:i="0.4.0.2.0.0.0" />
                            <g id="Group-22" transform="translate(0.000000, 0.652400)"
                                blush:i="0.4.0.2.0.0.1">
                                <path
                                    d="M9.6283,4.8567 L8.9363,11.0537 L11.1393,10.8337 L9.6283,4.8567 Z M8.9233,11.0767 C8.9213,11.0767 8.9183,11.0757 8.9163,11.0737 C8.9143,11.0707 8.9133,11.0677 8.9133,11.0647 L9.6133,4.7967 C9.6143,4.7917 9.6183,4.7877 9.6233,4.7877 C9.6283,4.7877 9.6333,4.7907 9.6343,4.7947 L11.1623,10.8397 C11.1633,10.8427 11.1623,10.8467 11.1613,10.8487 C11.1593,10.8517 11.1563,10.8527 11.1533,10.8537 L8.9253,11.0767 L8.9233,11.0767 Z"
                                    id="Fill-2" blush:i="0.4.0.2.0.0.1.0" />
                                <path
                                    d="M7.8626,0.3586 C7.8626,0.3586 7.9546,2.2096 7.5446,2.5976 C5.8246,2.4076 1.9526,3.0466 0.0106,3.9036 C0.7746,2.1306 7.8626,0.3586 7.8626,0.3586"
                                    id="Fill-4" blush:i="0.4.0.2.0.0.1.1" />
                                <g id="Group-8" blush:i="0.4.0.2.0.0.1.2">
                                    <path
                                        d="M7.8524,0.3713 C7.6894,0.4133 5.9904,0.8483 4.2264,1.4753 C1.8134,2.3353 0.3654,3.1663 0.0314,3.8823 C1.9254,3.0563 5.7694,2.3923 7.5404,2.5873 C7.9214,2.2163 7.8594,0.5363 7.8524,0.3713 M0.0104,3.9143 C0.0074,3.9143 0.0054,3.9123 0.0034,3.9103 C-0.0006,3.9073 -0.0006,3.9033 0.0004,3.8983 C0.3184,3.1613 1.7384,2.3393 4.2194,1.4563 C6.0664,0.7993 7.8424,0.3523 7.8594,0.3483 C7.8634,0.3473 7.8664,0.3483 7.8684,0.3503 C7.8714,0.3513 7.8734,0.3543 7.8734,0.3573 C7.8764,0.4333 7.9614,2.2183 7.5514,2.6053 C7.5494,2.6073 7.5454,2.6093 7.5424,2.6083 C5.7684,2.4113 1.8994,3.0823 0.0154,3.9133 C0.0134,3.9133 0.0124,3.9143 0.0104,3.9143"
                                        id="Fill-6" blush:i="0.4.0.2.0.0.1.2.0" />
                                </g>
                                <path
                                    d="M4.8997,8.6438 C4.3457,8.6778 3.7937,8.5748 3.2787,8.4048 C3.4687,8.4608 3.6717,8.4918 3.8827,8.4918 C4.9357,8.4918 5.7927,7.7398 5.7927,6.8168 C5.7927,6.4448 5.5037,5.9998 5.2307,5.6918 C6.5807,5.8158 7.7657,6.5188 8.2027,6.8078 C7.8117,7.2718 6.5937,8.5398 4.8997,8.6438 M2.0237,6.3568 C1.9927,6.5158 1.9737,6.6898 1.9737,6.8168 C1.9737,7.4868 2.4247,8.0658 3.0737,8.3328 C2.0807,7.9648 1.2587,7.3728 0.9077,7.0968 C1.1117,6.9228 1.4927,6.6308 2.0237,6.3568 M8.6377,6.5928 C8.5667,6.5398 6.8727,5.2738 4.8837,5.2478 C2.1497,5.2168 0.5007,6.8868 0.4307,6.9578 C0.3907,6.9988 0.3697,7.0558 0.3717,7.1138 C0.3737,7.1708 0.3997,7.2258 0.4427,7.2638 C0.5297,7.3408 2.5167,9.0748 4.6817,9.0748 C4.7627,9.0748 4.8447,9.0718 4.9257,9.0668 C7.1967,8.9258 8.6227,6.9688 8.6827,6.8858 C8.7497,6.7918 8.7297,6.6628 8.6377,6.5928"
                                    id="Fill-9" blush:i="0.4.0.2.0.0.1.3" />
                                <path
                                    d="M14.221,8.217 C13.735,8.251 13.248,8.132 12.802,7.946 C12.879,7.961 12.957,7.971 13.035,7.971 C13.884,7.971 14.573,7.281 14.573,6.433 C14.573,6.062 14.443,5.714 14.209,5.439 C14.303,5.433 14.399,5.43 14.495,5.43 L14.496,5.43 C15.566,5.43 16.546,6.185 16.889,6.482 C16.584,6.905 15.595,8.118 14.221,8.217 M11.018,6.776 C11.129,6.681 11.296,6.548 11.511,6.402 C11.553,6.758 11.706,7.116 11.948,7.407 C12.013,7.487 12.083,7.556 12.156,7.619 C11.641,7.315 11.231,6.969 11.018,6.776 M17.318,6.298 C17.264,6.245 15.997,5.006 14.496,5.006 L14.495,5.006 C12.172,5.006 10.62,6.558 10.555,6.624 C10.474,6.706 10.474,6.838 10.554,6.921 C10.573,6.94 11.013,7.389 11.684,7.826 C12.519,8.371 13.313,8.647 14.046,8.647 C14.115,8.647 14.183,8.645 14.251,8.64 C16.129,8.505 17.3,6.639 17.349,6.56 C17.401,6.476 17.388,6.367 17.318,6.298"
                                    id="Fill-11" blush:i="0.4.0.2.0.0.1.4" />
                                <path
                                    d="M10.8109,0.3586 C10.8109,0.3586 10.7179,2.2096 11.1289,2.5976 C12.8479,2.4076 15.6169,2.8636 17.5589,3.7196 C16.7949,1.9476 10.8109,0.3586 10.8109,0.3586"
                                    id="Fill-13" blush:i="0.4.0.2.0.0.1.5" />
                                <g id="Group-17" transform="translate(10.000000, 0.000000)"
                                    blush:i="0.4.0.2.0.0.1.6">
                                    <path
                                        d="M1.9872,2.5442 C3.7012,2.5442 5.9272,2.9942 7.5382,3.6992 C7.2082,2.9832 5.9502,2.1842 3.8942,1.3842 C2.3992,0.8032 0.9702,0.4122 0.8202,0.3722 C0.8142,0.5382 0.7522,2.2162 1.1332,2.5872 C1.3972,2.5582 1.6842,2.5442 1.9872,2.5442 M7.5582,3.7312 C7.5572,3.7312 7.5552,3.7312 7.5542,3.7302 C5.6592,2.8952 2.8982,2.4122 1.1302,2.6082 C1.1272,2.6092 1.1242,2.6072 1.1222,2.6062 C0.9492,2.4422 0.8432,2.0152 0.8052,1.3332 C0.7772,0.8272 0.8002,0.3622 0.8002,0.3572 C0.8002,0.3552 0.8022,0.3522 0.8042,0.3502 C0.8072,0.3482 0.8102,0.3472 0.8142,0.3482 C0.8282,0.3522 2.3282,0.7522 3.9022,1.3642 C5.3562,1.9302 7.1722,2.7972 7.5682,3.7162 C7.5702,3.7202 7.56924052,3.7252 7.5662,3.7282 C7.5642,3.7302 7.5612,3.7312 7.5582,3.7312"
                                        id="Fill-15" blush:i="0.4.0.2.0.0.1.6.0" />
                                </g>
                                <path
                                    d="M5.974,13.3127 C7.031,14.3127 7.89,14.8687 9.322,14.9637 C10.754,15.0597 11.757,14.5357 11.757,14.5357 C11.757,14.5357 10.611,16.4807 9.226,16.8417 C6.362,17.5907 6.497,15.3437 5.974,13.3127"
                                    id="Fill-18" blush:i="0.4.0.2.0.0.1.7" />
                                <path
                                    d="M5.993,13.3459 C6.075,13.6659 6.14,13.9919 6.203,14.3069 C6.411,15.3389 6.607,16.3149 7.294,16.7429 C7.744,17.0249 8.375,17.0539 9.223,16.8319 C10.493,16.4999 11.575,14.8109 11.729,14.5609 C11.544,14.6489 10.597,15.0589 9.321,14.9749 C7.881,14.8779 7.035,14.3279 5.993,13.3459 M8.224,16.9999 C7.849,16.9999 7.537,16.9199 7.283,16.7609 C6.588,16.3269 6.391,15.3479 6.182,14.3109 C6.117,13.9849 6.049,13.6469 5.964,13.3159 C5.962,13.3109 5.965,13.3069 5.969,13.3039 C5.972,13.3019 5.978,13.3019 5.981,13.3059 C7.033,14.2999 7.876,14.8569 9.323,14.9529 C10.736,15.0479 11.742,14.5319 11.752,14.5269 C11.757,14.5239 11.762,14.5249 11.764,14.5289 C11.768,14.5319 11.768,14.5369 11.766,14.5409 C11.755,14.5609 10.602,16.4929 9.229,16.8529 C8.853,16.9499 8.519,16.9999 8.224,16.9999"
                                    id="Fill-20" blush:i="0.4.0.2.0.0.1.8" />
                            </g>
                        </g>
                    </g>
                </g>
                <g id="Glasses" transform="translate(261.000000, 385.000000) scale(1 1)"
                    blush:width="24" blush:height="8" blush:component="Glasses" blush:i="0.4.0.3"
                    blush:value="None" blush:viewBox="42 14 0 0">
                    <g id="Glasses/None" stroke="none" stroke-width="1" fill="none"
                        fill-rule="evenodd" fill-opacity="0" blush:viewBox="42 14 0 0"
                        blush:i="0.4.0.3.0" />
                </g>
            </g>
        </g>
        <g id="Speech" transform="translate(351.000000, 382.000000) scale(1 0.9959247311827957)"
            fill="#000" blush:width="151" blush:height="92.621" blush:component="Speech"
            blush:i="0.5" blush:value="Thinking Bubble"
            blush:viewBox="23.405 1.2077922077922096 123.06499999999998 92.09415584415584">
            <g id="Speech/Thinking Bubble" stroke="none" stroke-width="1" fill="none"
                fill-rule="evenodd"
                blush:viewBox="23.405 1.2077922077922096 123.06499999999998 92.09415584415584"
                blush:i="0.5.0">
                <g id="Group-10" transform="translate(24.000000, 1.000000)" fill="#000"
                    blush:i="0.5.0.0">
                    <g id="Group-3" blush:i="0.5.0.0.0">
                        <path
                            d="M25.306542,88.9717689 C25.747895,88.5771911 25.9872815,88.4141467 26.1610546,88.1989689 C27.7552563,86.2265911 29.3627857,84.2746578 29.9522815,81.6986578 C30.2460042,80.4137244 30.4828277,80.33808 31.772542,80.5445689 C32.6603739,80.6866578 33.5394916,80.91768 34.4324496,80.9902578 C38.0647689,81.2826133 41.6991387,81.5545244 45.3350462,81.7881022 C52.3080126,82.2353244 59.2440714,81.98488 66.1396345,80.7495244 C70.1046345,80.03908 73.9619874,78.9907911 77.6917017,77.4886356 C80.342895,76.4214356 82.9202731,75.1748356 85.6586092,74.3223022 C86.3583151,74.1040578 87.0600714,73.8316356 87.6910882,73.4646578 C89.9865336,72.1296356 92.2783908,70.78388 94.5236008,69.3675911 C97.8985924,67.2377911 100.892718,64.6561689 103.601836,61.7213689 C107.529416,57.4648356 110.76908,52.6951467 114.077433,47.97708 C114.870945,46.84548 115.490685,45.5881467 116.145794,44.3655689 C118.237223,40.46068 119.207584,36.1969911 120.025702,31.9011022 C120.243559,30.7551911 120.266626,29.5331244 120.150265,28.3693244 C119.7735,24.5927244 118.534534,21.0640133 116.942895,17.6273022 C114.875559,13.1632578 111.631794,9.82723556 107.428945,7.35499111 C104.593214,5.68723556 101.565256,4.45750222 98.4383655,3.45623556 C95.4119454,2.48665778 92.3475924,1.89581333 89.1330462,2.20912444 C87.3471303,2.38341333 85.5396849,2.35121333 83.7414664,2.38085778 C82.4368866,2.40232444 81.1282059,2.30623556 79.8272143,2.37523556 C72.5702647,2.76265778 65.4230126,3.89783556 58.3757185,5.65145778 C51.3402143,7.40252444 44.3841639,9.42601333 37.711584,12.2815911 C34.1407773,13.8098133 30.6612143,15.5537244 27.1621723,17.2460133 C20.8002311,20.3223911 15.139021,24.40668 10.1467605,29.3762133 C6.10179412,33.4037689 3.12509664,38.0763467 2.06964286,43.8064133 C1.52218067,46.7795467 1.46118067,49.7097467 2.22444958,52.6670356 C3.12509664,56.1563911 4.31792857,59.5394356 5.69632353,62.8606356 C6.0387437,63.6855689 6.47138235,64.4915911 6.97732353,65.2281022 C10.0693571,69.7340578 14.102021,73.19888 18.9528025,75.6982133 C20.6618277,76.5783467 22.0858445,77.6348133 23.0874748,79.3506133 C24.5740294,81.8959467 25.3957353,84.5619022 25.3080798,87.5053911 C25.2962899,87.8984356 25.306542,88.2930133 25.306542,88.9717689 M31.4506261,81.9588133 C31.1405,83.0331689 30.8293487,84.0415911 30.5586933,85.0602356 C30.122979,86.7009022 29.1644076,88.0251911 27.9485084,89.1404356 C26.9268866,90.0773022 25.7940294,90.89968 24.6678361,91.7143911 C23.9066176,92.26588 23.4724412,92.0062356 23.4524496,91.0417689 C23.4442479,90.6359467 23.5113992,90.22808 23.5488193,89.8222578 C23.8574076,86.4959467 23.3145588,83.3199022 21.9443655,80.2670356 C21.275416,78.7756133 20.2425168,77.7380578 18.7293067,77.0961022 C15.0139454,75.5198356 11.8844916,73.0895022 9.09643277,70.2293244 C6.62055042,67.6891022 4.66906303,64.8095022 3.44086134,61.4269689 C2.29570168,58.2739244 1.18386134,55.1239467 0.487743697,51.8369911 C-0.585651261,46.7647244 0.136609244,41.9306356 2.40847479,37.3076356 C5.20832353,31.6113022 9.40297059,27.1073911 14.3895924,23.2367467 C18.6196092,19.9533689 23.1894832,17.2792356 28.0474412,15.0553911 C30.3172563,14.0157911 32.5465756,12.8893022 34.8051134,11.82568 C39.9916513,9.38205778 45.3001891,7.21341333 50.7353403,5.40561333 C56.8353403,3.37701333 63.0722059,1.79512444 69.4495252,0.894546667 C73.3417353,0.345102222 77.2677773,0.0793244444 81.2122731,0.239813333 C83.0950714,0.315968889 84.9870966,0.211702222 86.8652815,0.332835556 C90.457105,0.564368889 94.0586681,0.739168889 97.5530966,1.75781333 C102.661718,3.24770222 107.527366,5.19708 111.711761,8.60159111 C114.430105,10.8131689 116.508718,13.4888356 118.055761,16.6127467 C119.752996,20.0392356 121.060651,23.5853244 121.598374,27.3885022 C121.834685,29.0583022 121.836223,30.7229911 121.543525,32.3881911 C120.626475,37.6127689 119.21271,42.6921911 116.416962,47.2421022 C114.451122,50.4411467 112.280752,53.5277467 110.031954,56.5387022 C107.412542,60.0454356 104.579887,63.3967911 101.282811,66.3050133 C99.8782731,67.5439467 98.3445588,68.6423244 96.8354496,69.75808 C93.9699874,71.8781689 91.0348109,73.9042133 87.7049286,75.2433244 C83.2288613,77.0434578 78.7712479,78.90748 74.2188025,80.4955022 C69.3695588,82.1877911 64.2783655,82.8440578 59.1861471,83.4359244 C53.7448445,84.0676578 48.2963655,84.0538578 42.8622395,83.5739244 C39.3201387,83.2611244 35.8098193,82.5895244 32.2851471,82.0789244 C32.0109034,82.0390578 31.7356345,81.9997022 31.4506261,81.9588133"
                            id="Fill-1" blush:i="0.5.0.0.0.0" />
                    </g>
                    <path
                        d="M47,42.6838357 C46.9785947,44.6567791 46.2249294,45.6610036 44.4970747,45.9604161 C43.0594358,46.2089551 41.7601845,45.2704424 41.2638805,43.6138695 C40.8054091,42.0839507 40.9557439,40.5863579 41.626277,39.1799138 C42.2788894,37.8105649 43.594568,38.1232258 44.6966914,38.0087602 C45.5643523,37.9181415 46.0765858,38.5424034 46.4011497,39.3330646 C46.5121585,39.6028009 46.6107224,39.8879052 46.656022,40.1761892 C46.7869427,41.0092451 46.8874978,41.8476003 47,42.6838357"
                        id="Fill-4" blush:i="0.5.0.0.1" />
                    <path
                        d="M71.0157085,30.9906383 C70.9722476,30.0425456 71.2125315,29.0079837 72.2555933,28.3387418 C72.7496489,28.0225404 73.2377099,27.9002554 73.8366712,28.0905902 C76.4787948,28.9317474 77.7021944,31.7898399 76.588696,34.3823847 C75.7909135,36.240196 73.5409372,36.5824917 72.4788925,34.9656689 C71.7195754,33.8098452 70.8738361,32.7123499 71.0157085,30.9906383"
                        id="Fill-6" blush:i="0.5.0.0.2" />
                    <path
                        d="M62,38.3772443 C61.9597664,38.7654688 61.9539495,39.0851831 61.8904482,39.3914933 C61.5496742,41.048646 60.1696121,41.5262317 58.9659964,40.3476575 C57.8055227,39.2117781 57.3139938,37.6881706 57.0304194,36.1223647 C56.8879051,35.3340008 57.2548552,34.4801055 57.9485218,34.2343623 C58.7401064,33.9533712 59.6960187,33.8123791 60.4876032,34.4766303 C61.1420057,35.0257049 61.5438573,35.7440692 61.7343611,36.5681775 C61.8763906,37.1812943 61.920987,37.8172478 62,38.3772443"
                        id="Fill-8" blush:i="0.5.0.0.3" />
                </g>
            </g>
        </g>
        <g id="Object"
            transform="translate(825.000000, 271.000000) rotate(30.000000) translate(-825.000000, -271.000000) translate(668.000000, 180.000000) scale(1 1)"
            fill="#000" blush:width="314" blush:height="182" blush:component="Object" blush:i="0.6"
            blush:value="Search"
            blush:viewBox="86.34999999999997 14.120689655172413 141.29999999999995 152.1896551724138">
            <g id="Object/Search" stroke="none" stroke-width="1" fill="none" fill-rule="evenodd"
                blush:viewBox="86.34999999999997 14.120689655172413 141.29999999999995 152.1896551724138"
                blush:i="0.6.0">
                <g id="Group-10" transform="translate(87.000000, 14.000000)" fill="#000"
                    blush:i="0.6.0.0">
                    <g id="Group-3" transform="translate(0.000000, 0.975000)" blush:i="0.6.0.0.0">
                        <path
                            d="M72.1905,72.1397 C70.5145,73.5357 68.9145,74.8677 67.2465,76.2567 C69.6395,79.0437 71.8535,81.6207 74.1625,84.3087 C75.9315,82.6577 77.5245,81.1707 79.2265,79.5817 C76.8005,77.0157 74.5715,74.6577 72.1905,72.1397 M2.2225,44.5577 C2.5615,46.5747 2.8255,50.0327 3.7445,53.3067 C9.1685,72.6417 28.3015,84.4707 48.5725,80.7787 C61.5805,78.4097 71.5035,71.2937 77.8945,59.6827 C88.1075,41.1267 81.9555,17.8677 62.8135,7.5977 C48.4215,-0.1243 33.9685,1.0757 20.5355,9.8607 C8.7675,17.5577 2.6445,28.8977 2.2225,44.5577 M72.8785,88.8287 C75.2575,91.4617 77.4465,93.8967 79.6475,96.3207 C88.1405,105.6687 96.6035,115.0437 105.1435,124.3477 C110.6555,130.3527 116.2095,136.3237 121.9005,142.1577 C123.7745,144.0787 126.1175,145.5517 128.2835,147.1807 C129.7975,148.3197 131.2145,147.9687 132.6405,146.8507 C134.3985,145.4727 135.5425,143.7017 136.4005,141.7057 C117.7885,121.6987 101.4015,99.9437 84.8315,78.0347 C80.6425,81.8167 76.6255,85.4457 72.8785,88.8287 M74.0085,70.3557 C76.5555,72.8377 78.9435,75.1647 81.4195,77.5767 C81.9745,77.1617 82.5275,76.7277 83.1015,76.3227 C84.4255,75.3887 85.0895,75.3907 86.2605,76.5397 C87.1125,77.3757 87.8715,78.3167 88.6065,79.2607 C97.7895,91.0487 106.8065,102.9697 116.1875,114.5987 C122.2545,122.1187 128.8365,129.2237 135.2175,136.4887 C136.1095,137.5037 137.1565,138.3877 138.1615,139.2977 C139.5595,140.5637 139.7905,141.4037 139.1275,143.1127 C139.0705,143.2607 138.9915,143.4017 138.9135,143.5407 C137.3245,146.3857 134.9825,148.5257 132.3455,150.3367 C130.6865,151.4757 128.8875,150.999798 127.3705,150.0197 C125.2295,148.6377 122.9995,147.2637 121.2255,145.4717 C116.0585,140.2457 110.9975,134.9067 106.0795,129.4457 C95.8115,118.0447 86.0465,106.1867 75.0755,95.4287 C73.4195,93.8057 71.7115,92.2377 70.0685,90.6037 C69.0615,89.6017 69.0715,89.2507 70.0585,88.2087 C70.7685,87.4587 71.5505,86.7777 72.4215,85.9507 C69.9415,83.1757 67.5205,80.4677 65.0375,77.6887 C64.1015,78.1817 63.2725,78.6427 62.4235,79.0657 C46.9075,86.8037 31.6695,86.4787 17.2065,76.7087 C6.8985,69.7447 1.0975,59.6767 0.1525,47.2337 C-1.1255,30.4137 5.6715,17.2987 19.3645,7.6387 C26.7965,2.3947 35.1695,-0.1213 44.1585,0.0307 C58.9565,0.2827 70.9605,6.3037 79.1575,18.8317 C85.5695,28.6327 86.9625,39.4737 84.3435,50.8117 C82.8095,57.4527 79.7695,63.3957 75.3485,68.6107 C74.9385,69.0937 74.5755,69.6157 74.0085,70.3557"
                            id="Fill-1" blush:i="0.6.0.0.0.0" />
                    </g>
                    <path
                        d="M8.5074,44.4409 C8.5074,54.1609 11.8134,62.4639 19.1814,68.9139 C25.5464,74.4839 32.8734,77.8199 41.5154,77.0249 C50.7084,76.1799 58.8774,72.6849 65.5054,66.1889 C74.9254,56.9549 78.4594,45.8389 75.0244,32.9299 C72.8454,24.7419 68.0244,18.4429 60.2954,14.6749 C53.7384,11.4789 46.6984,10.1449 39.4644,9.7239 C38.4504,9.6649 37.3744,9.4929 36.8974,10.8769 C36.8054,11.1439 35.9134,11.3059 35.4294,11.2369 C33.4104,10.9499 31.6324,11.5559 29.9444,12.5479 C28.2234,13.5609 26.4544,14.5129 24.8294,15.6649 C14.8974,22.6989 8.5394,31.7829 8.5074,44.4409 M79.3754,41.4399 C79.2614,50.5919 76.5904,57.7739 71.4514,64.2199 C68.7154,67.6529 65.0434,69.9419 62.0584,73.0319 C61.4864,73.6239 60.5264,73.8369 59.7554,74.2429 C55.0784,76.7059 50.2444,78.6289 44.9694,79.5139 C35.9254,81.0299 27.8034,78.8609 20.5114,73.5999 C9.4784,65.6409 4.8124,54.6609 5.8274,41.1929 C6.6534,30.2379 12.4194,22.0879 20.6934,15.4339 C22.9904,13.5869 25.4194,11.8969 27.8484,10.2239 C30.6804,8.2749 33.9494,7.2139 37.2954,7.1339 C46.2904,6.9169 54.9734,8.6779 62.9434,12.9129 C71.8694,17.6539 76.6814,25.5379 78.6724,35.2459 C79.1504,37.5779 79.2184,39.9939 79.3754,41.4399"
                        id="Fill-4" blush:i="0.6.0.0.1" />
                    <path
                        d="M70.7247,44.8374 C70.7547,41.4634 66.4107,38.2984 63.3927,39.4074 C62.6397,39.6834 61.8937,40.3664 61.4627,41.0604 C59.7337,43.8444 60.0527,46.8304 62.2037,49.4194 C63.9527,51.5264 66.6817,51.6954 68.7477,49.8584 C70.3257,48.4564 70.5287,46.5564 70.7247,44.8374 M73.1707,44.4224 C73.0827,46.8304 72.6567,48.9854 71.3077,50.8994 C68.3947,55.0324 62.6807,55.1054 59.7627,50.9894 C57.6967,48.0744 57.1087,44.9294 58.2467,41.4514 C59.5917,37.3404 62.9717,36.1744 66.5787,36.9854 C67.7957,37.2594 68.9777,37.8764 70.0637,38.5244 C72.3177,39.8684 73.3897,41.9034 73.1707,44.4224"
                        id="Fill-6" blush:i="0.6.0.0.2" />
                    <path
                        d="M63.669,29.5083 C63.731,28.2903 62.701,27.2023 61.471,27.1873 C60.406,27.1733 59.502,27.9133 59.482,28.8123 C59.458,29.9853 60.71,31.1233 62.037,31.1353 C63.033,31.1443 63.615,30.5653 63.669,29.5083 M66.3270592,29.5263 C66.338,32.0593 64.814,33.7513 62.484,33.7943 C59.586,33.8463 56.894,31.3853 56.8779512,28.6673 C56.866,26.6303 59.069,24.8503 61.598,24.8542933 C64.25,24.8573 66.316,26.8983 66.3270592,29.5263"
                        id="Fill-8" blush:i="0.6.0.0.3" />
                </g>
            </g>
        </g>
        <g id="Object" transform="translate(330.000000, 58.000000) scale(1 1)" fill="#000"
            blush:width="314" blush:height="182" blush:component="Object" blush:i="0.7"
            blush:value="Search"
            blush:viewBox="86.34999999999997 14.120689655172413 141.29999999999995 152.1896551724138">
            <g id="Object/Search" stroke="none" stroke-width="1" fill="none" fill-rule="evenodd"
                blush:viewBox="86.34999999999997 14.120689655172413 141.29999999999995 152.1896551724138"
                blush:i="0.7.0">
                <g id="Group-10" transform="translate(87.000000, 14.000000)" fill="#000"
                    blush:i="0.7.0.0">
                    <g id="Group-3" transform="translate(0.000000, 0.975000)" blush:i="0.7.0.0.0">
                        <path
                            d="M72.1905,72.1397 C70.5145,73.5357 68.9145,74.8677 67.2465,76.2567 C69.6395,79.0437 71.8535,81.6207 74.1625,84.3087 C75.9315,82.6577 77.5245,81.1707 79.2265,79.5817 C76.8005,77.0157 74.5715,74.6577 72.1905,72.1397 M2.2225,44.5577 C2.5615,46.5747 2.8255,50.0327 3.7445,53.3067 C9.1685,72.6417 28.3015,84.4707 48.5725,80.7787 C61.5805,78.4097 71.5035,71.2937 77.8945,59.6827 C88.1075,41.1267 81.9555,17.8677 62.8135,7.5977 C48.4215,-0.1243 33.9685,1.0757 20.5355,9.8607 C8.7675,17.5577 2.6445,28.8977 2.2225,44.5577 M72.8785,88.8287 C75.2575,91.4617 77.4465,93.8967 79.6475,96.3207 C88.1405,105.6687 96.6035,115.0437 105.1435,124.3477 C110.6555,130.3527 116.2095,136.3237 121.9005,142.1577 C123.7745,144.0787 126.1175,145.5517 128.2835,147.1807 C129.7975,148.3197 131.2145,147.9687 132.6405,146.8507 C134.3985,145.4727 135.5425,143.7017 136.4005,141.7057 C117.7885,121.6987 101.4015,99.9437 84.8315,78.0347 C80.6425,81.8167 76.6255,85.4457 72.8785,88.8287 M74.0085,70.3557 C76.5555,72.8377 78.9435,75.1647 81.4195,77.5767 C81.9745,77.1617 82.5275,76.7277 83.1015,76.3227 C84.4255,75.3887 85.0895,75.3907 86.2605,76.5397 C87.1125,77.3757 87.8715,78.3167 88.6065,79.2607 C97.7895,91.0487 106.8065,102.9697 116.1875,114.5987 C122.2545,122.1187 128.8365,129.2237 135.2175,136.4887 C136.1095,137.5037 137.1565,138.3877 138.1615,139.2977 C139.5595,140.5637 139.7905,141.4037 139.1275,143.1127 C139.0705,143.2607 138.9915,143.4017 138.9135,143.5407 C137.3245,146.3857 134.9825,148.5257 132.3455,150.3367 C130.6865,151.4757 128.8875,150.999798 127.3705,150.0197 C125.2295,148.6377 122.9995,147.2637 121.2255,145.4717 C116.0585,140.2457 110.9975,134.9067 106.0795,129.4457 C95.8115,118.0447 86.0465,106.1867 75.0755,95.4287 C73.4195,93.8057 71.7115,92.2377 70.0685,90.6037 C69.0615,89.6017 69.0715,89.2507 70.0585,88.2087 C70.7685,87.4587 71.5505,86.7777 72.4215,85.9507 C69.9415,83.1757 67.5205,80.4677 65.0375,77.6887 C64.1015,78.1817 63.2725,78.6427 62.4235,79.0657 C46.9075,86.8037 31.6695,86.4787 17.2065,76.7087 C6.8985,69.7447 1.0975,59.6767 0.1525,47.2337 C-1.1255,30.4137 5.6715,17.2987 19.3645,7.6387 C26.7965,2.3947 35.1695,-0.1213 44.1585,0.0307 C58.9565,0.2827 70.9605,6.3037 79.1575,18.8317 C85.5695,28.6327 86.9625,39.4737 84.3435,50.8117 C82.8095,57.4527 79.7695,63.3957 75.3485,68.6107 C74.9385,69.0937 74.5755,69.6157 74.0085,70.3557"
                            id="Fill-1" blush:i="0.7.0.0.0.0" />
                    </g>
                    <path
                        d="M8.5074,44.4409 C8.5074,54.1609 11.8134,62.4639 19.1814,68.9139 C25.5464,74.4839 32.8734,77.8199 41.5154,77.0249 C50.7084,76.1799 58.8774,72.6849 65.5054,66.1889 C74.9254,56.9549 78.4594,45.8389 75.0244,32.9299 C72.8454,24.7419 68.0244,18.4429 60.2954,14.6749 C53.7384,11.4789 46.6984,10.1449 39.4644,9.7239 C38.4504,9.6649 37.3744,9.4929 36.8974,10.8769 C36.8054,11.1439 35.9134,11.3059 35.4294,11.2369 C33.4104,10.9499 31.6324,11.5559 29.9444,12.5479 C28.2234,13.5609 26.4544,14.5129 24.8294,15.6649 C14.8974,22.6989 8.5394,31.7829 8.5074,44.4409 M79.3754,41.4399 C79.2614,50.5919 76.5904,57.7739 71.4514,64.2199 C68.7154,67.6529 65.0434,69.9419 62.0584,73.0319 C61.4864,73.6239 60.5264,73.8369 59.7554,74.2429 C55.0784,76.7059 50.2444,78.6289 44.9694,79.5139 C35.9254,81.0299 27.8034,78.8609 20.5114,73.5999 C9.4784,65.6409 4.8124,54.6609 5.8274,41.1929 C6.6534,30.2379 12.4194,22.0879 20.6934,15.4339 C22.9904,13.5869 25.4194,11.8969 27.8484,10.2239 C30.6804,8.2749 33.9494,7.2139 37.2954,7.1339 C46.2904,6.9169 54.9734,8.6779 62.9434,12.9129 C71.8694,17.6539 76.6814,25.5379 78.6724,35.2459 C79.1504,37.5779 79.2184,39.9939 79.3754,41.4399"
                        id="Fill-4" blush:i="0.7.0.0.1" />
                    <path
                        d="M70.7247,44.8374 C70.7547,41.4634 66.4107,38.2984 63.3927,39.4074 C62.6397,39.6834 61.8937,40.3664 61.4627,41.0604 C59.7337,43.8444 60.0527,46.8304 62.2037,49.4194 C63.9527,51.5264 66.6817,51.6954 68.7477,49.8584 C70.3257,48.4564 70.5287,46.5564 70.7247,44.8374 M73.1707,44.4224 C73.0827,46.8304 72.6567,48.9854 71.3077,50.8994 C68.3947,55.0324 62.6807,55.1054 59.7627,50.9894 C57.6967,48.0744 57.1087,44.9294 58.2467,41.4514 C59.5917,37.3404 62.9717,36.1744 66.5787,36.9854 C67.7957,37.2594 68.9777,37.8764 70.0637,38.5244 C72.3177,39.8684 73.3897,41.9034 73.1707,44.4224"
                        id="Fill-6" blush:i="0.7.0.0.2" />
                    <path
                        d="M63.669,29.5083 C63.731,28.2903 62.701,27.2023 61.471,27.1873 C60.406,27.1733 59.502,27.9133 59.482,28.8123 C59.458,29.9853 60.71,31.1233 62.037,31.1353 C63.033,31.1443 63.615,30.5653 63.669,29.5083 M66.3270592,29.5263 C66.338,32.0593 64.814,33.7513 62.484,33.7943 C59.586,33.8463 56.894,31.3853 56.8779512,28.6673 C56.866,26.6303 59.069,24.8503 61.598,24.8542933 C64.25,24.8573 66.316,26.8983 66.3270592,29.5263"
                        id="Fill-8" blush:i="0.7.0.0.3" />
                </g>
            </g>
        </g>
        <g id="Object"
            transform="translate(220.822856, 248.373984) rotate(-16.000000) translate(-220.822856, -248.373984) translate(63.822856, 163.873984) scale(1 0.9285714285714286)"
            fill="#000" blush:width="314" blush:height="169" blush:component="Object" blush:i="0.8"
            blush:value="Search"
            blush:viewBox="86.34999999999997 14.120689655172413 141.29999999999995 152.1896551724138">
            <g id="Object/Search" stroke="none" stroke-width="1" fill="none" fill-rule="evenodd"
                blush:viewBox="86.34999999999997 14.120689655172413 141.29999999999995 152.1896551724138"
                blush:i="0.8.0">
                <g id="Group-10" transform="translate(87.000000, 14.000000)" fill="#000"
                    blush:i="0.8.0.0">
                    <g id="Group-3" transform="translate(0.000000, 0.975000)" blush:i="0.8.0.0.0">
                        <path
                            d="M72.1905,72.1397 C70.5145,73.5357 68.9145,74.8677 67.2465,76.2567 C69.6395,79.0437 71.8535,81.6207 74.1625,84.3087 C75.9315,82.6577 77.5245,81.1707 79.2265,79.5817 C76.8005,77.0157 74.5715,74.6577 72.1905,72.1397 M2.2225,44.5577 C2.5615,46.5747 2.8255,50.0327 3.7445,53.3067 C9.1685,72.6417 28.3015,84.4707 48.5725,80.7787 C61.5805,78.4097 71.5035,71.2937 77.8945,59.6827 C88.1075,41.1267 81.9555,17.8677 62.8135,7.5977 C48.4215,-0.1243 33.9685,1.0757 20.5355,9.8607 C8.7675,17.5577 2.6445,28.8977 2.2225,44.5577 M72.8785,88.8287 C75.2575,91.4617 77.4465,93.8967 79.6475,96.3207 C88.1405,105.6687 96.6035,115.0437 105.1435,124.3477 C110.6555,130.3527 116.2095,136.3237 121.9005,142.1577 C123.7745,144.0787 126.1175,145.5517 128.2835,147.1807 C129.7975,148.3197 131.2145,147.9687 132.6405,146.8507 C134.3985,145.4727 135.5425,143.7017 136.4005,141.7057 C117.7885,121.6987 101.4015,99.9437 84.8315,78.0347 C80.6425,81.8167 76.6255,85.4457 72.8785,88.8287 M74.0085,70.3557 C76.5555,72.8377 78.9435,75.1647 81.4195,77.5767 C81.9745,77.1617 82.5275,76.7277 83.1015,76.3227 C84.4255,75.3887 85.0895,75.3907 86.2605,76.5397 C87.1125,77.3757 87.8715,78.3167 88.6065,79.2607 C97.7895,91.0487 106.8065,102.9697 116.1875,114.5987 C122.2545,122.1187 128.8365,129.2237 135.2175,136.4887 C136.1095,137.5037 137.1565,138.3877 138.1615,139.2977 C139.5595,140.5637 139.7905,141.4037 139.1275,143.1127 C139.0705,143.2607 138.9915,143.4017 138.9135,143.5407 C137.3245,146.3857 134.9825,148.5257 132.3455,150.3367 C130.6865,151.4757 128.8875,150.999798 127.3705,150.0197 C125.2295,148.6377 122.9995,147.2637 121.2255,145.4717 C116.0585,140.2457 110.9975,134.9067 106.0795,129.4457 C95.8115,118.0447 86.0465,106.1867 75.0755,95.4287 C73.4195,93.8057 71.7115,92.2377 70.0685,90.6037 C69.0615,89.6017 69.0715,89.2507 70.0585,88.2087 C70.7685,87.4587 71.5505,86.7777 72.4215,85.9507 C69.9415,83.1757 67.5205,80.4677 65.0375,77.6887 C64.1015,78.1817 63.2725,78.6427 62.4235,79.0657 C46.9075,86.8037 31.6695,86.4787 17.2065,76.7087 C6.8985,69.7447 1.0975,59.6767 0.1525,47.2337 C-1.1255,30.4137 5.6715,17.2987 19.3645,7.6387 C26.7965,2.3947 35.1695,-0.1213 44.1585,0.0307 C58.9565,0.2827 70.9605,6.3037 79.1575,18.8317 C85.5695,28.6327 86.9625,39.4737 84.3435,50.8117 C82.8095,57.4527 79.7695,63.3957 75.3485,68.6107 C74.9385,69.0937 74.5755,69.6157 74.0085,70.3557"
                            id="Fill-1" blush:i="0.8.0.0.0.0" />
                    </g>
                    <path
                        d="M8.5074,44.4409 C8.5074,54.1609 11.8134,62.4639 19.1814,68.9139 C25.5464,74.4839 32.8734,77.8199 41.5154,77.0249 C50.7084,76.1799 58.8774,72.6849 65.5054,66.1889 C74.9254,56.9549 78.4594,45.8389 75.0244,32.9299 C72.8454,24.7419 68.0244,18.4429 60.2954,14.6749 C53.7384,11.4789 46.6984,10.1449 39.4644,9.7239 C38.4504,9.6649 37.3744,9.4929 36.8974,10.8769 C36.8054,11.1439 35.9134,11.3059 35.4294,11.2369 C33.4104,10.9499 31.6324,11.5559 29.9444,12.5479 C28.2234,13.5609 26.4544,14.5129 24.8294,15.6649 C14.8974,22.6989 8.5394,31.7829 8.5074,44.4409 M79.3754,41.4399 C79.2614,50.5919 76.5904,57.7739 71.4514,64.2199 C68.7154,67.6529 65.0434,69.9419 62.0584,73.0319 C61.4864,73.6239 60.5264,73.8369 59.7554,74.2429 C55.0784,76.7059 50.2444,78.6289 44.9694,79.5139 C35.9254,81.0299 27.8034,78.8609 20.5114,73.5999 C9.4784,65.6409 4.8124,54.6609 5.8274,41.1929 C6.6534,30.2379 12.4194,22.0879 20.6934,15.4339 C22.9904,13.5869 25.4194,11.8969 27.8484,10.2239 C30.6804,8.2749 33.9494,7.2139 37.2954,7.1339 C46.2904,6.9169 54.9734,8.6779 62.9434,12.9129 C71.8694,17.6539 76.6814,25.5379 78.6724,35.2459 C79.1504,37.5779 79.2184,39.9939 79.3754,41.4399"
                        id="Fill-4" blush:i="0.8.0.0.1" />
                    <path
                        d="M70.7247,44.8374 C70.7547,41.4634 66.4107,38.2984 63.3927,39.4074 C62.6397,39.6834 61.8937,40.3664 61.4627,41.0604 C59.7337,43.8444 60.0527,46.8304 62.2037,49.4194 C63.9527,51.5264 66.6817,51.6954 68.7477,49.8584 C70.3257,48.4564 70.5287,46.5564 70.7247,44.8374 M73.1707,44.4224 C73.0827,46.8304 72.6567,48.9854 71.3077,50.8994 C68.3947,55.0324 62.6807,55.1054 59.7627,50.9894 C57.6967,48.0744 57.1087,44.9294 58.2467,41.4514 C59.5917,37.3404 62.9717,36.1744 66.5787,36.9854 C67.7957,37.2594 68.9777,37.8764 70.0637,38.5244 C72.3177,39.8684 73.3897,41.9034 73.1707,44.4224"
                        id="Fill-6" blush:i="0.8.0.0.2" />
                    <path
                        d="M63.669,29.5083 C63.731,28.2903 62.701,27.2023 61.471,27.1873 C60.406,27.1733 59.502,27.9133 59.482,28.8123 C59.458,29.9853 60.71,31.1233 62.037,31.1353 C63.033,31.1443 63.615,30.5653 63.669,29.5083 M66.3270592,29.5263 C66.338,32.0593 64.814,33.7513 62.484,33.7943 C59.586,33.8463 56.894,31.3853 56.8779512,28.6673 C56.866,26.6303 59.069,24.8503 61.598,24.8542933 C64.25,24.8573 66.316,26.8983 66.3270592,29.5263"
                        id="Fill-8" blush:i="0.8.0.0.3" />
                </g>
            </g>
        </g>
    </g>
</svg>