<svg width="1044" height="220" viewBox="0 0 1044 220" fill="none" xmlns="http://www.w3.org/2000/svg">
  <path
    d="M193.94 188.42C174.38 188.42 158.9 182.66 147.5 171.14C136.1 159.62 130.4 143.9 130.4 123.98C130.4 103.94 136.1 88.16 147.5 76.64C158.9 65 174.38 59.18 193.94 59.18C213.5 59.18 228.98 65 240.38 76.64C251.78 88.16 257.48 103.94 257.48 123.98C257.48 141.26 253.16 155.42 244.52 166.46L257.48 177.26L242.72 195.08L226.34 181.4C216.74 186.08 205.94 188.42 193.94 188.42ZM188.18 149.36L202.94 131.54L216.98 143.42C219.26 138.14 220.4 131.66 220.4 123.98C220.4 112.94 218.06 104.36 213.38 98.24C208.82 92 202.34 88.88 193.94 88.88C185.54 88.88 179 92 174.32 98.24C169.76 104.36 167.48 112.94 167.48 123.98C167.48 134.9 169.76 143.42 174.32 149.54C179 155.66 185.54 158.72 193.94 158.72C195.26 158.72 196.88 158.6 198.8 158.36L188.18 149.36ZM271.813 185V62.6H325.633C340.753 62.6 352.633 66.08 361.273 73.04C370.033 80 374.413 89.42 374.413 101.3C374.413 114.14 369.733 123.62 360.373 129.74C364.933 133.58 368.113 139.34 369.913 147.02L378.913 185H340.933L334.633 153.68C333.793 149.48 332.593 146.72 331.033 145.4C329.593 144.08 326.953 143.42 323.113 143.42H308.533V185H271.813ZM324.913 91.4H308.533V115.52H324.013C332.533 115.52 336.793 111.5 336.793 103.46C336.793 95.42 332.833 91.4 324.913 91.4ZM389.72 185V150.08H424.64V185H389.72ZM550.125 104.36H511.785C509.025 94.04 502.665 88.88 492.705 88.88C485.265 88.88 479.505 92 475.425 98.24C471.465 104.36 469.485 112.94 469.485 123.98C469.485 135.02 471.465 143.6 475.425 149.72C479.385 155.72 485.145 158.72 492.705 158.72C502.545 158.72 508.785 153.92 511.425 144.32H550.125C547.365 158.6 540.825 169.52 530.505 177.08C520.305 184.64 508.005 188.42 493.605 188.42C474.525 188.42 459.465 182.66 448.425 171.14C437.385 159.62 431.865 143.9 431.865 123.98C431.865 103.94 437.385 88.16 448.425 76.64C459.465 65 474.525 59.18 493.605 59.18C508.245 59.18 520.725 63.08 531.045 70.88C541.365 78.68 547.725 89.84 550.125 104.36ZM669.11 171.14C657.71 182.66 642.23 188.42 622.67 188.42C603.11 188.42 587.63 182.66 576.23 171.14C564.83 159.62 559.13 143.9 559.13 123.98C559.13 103.94 564.83 88.16 576.23 76.64C587.63 65 603.11 59.18 622.67 59.18C642.23 59.18 657.71 65 669.11 76.64C680.51 88.16 686.21 103.94 686.21 123.98C686.21 143.9 680.51 159.62 669.11 171.14ZM603.41 149.54C607.97 155.66 614.39 158.72 622.67 158.72C630.95 158.72 637.31 155.66 641.75 149.54C646.31 143.42 648.59 134.9 648.59 123.98C648.59 112.94 646.31 104.36 641.75 98.24C637.31 92 630.95 88.88 622.67 88.88C614.39 88.88 607.97 92 603.41 98.24C598.97 104.36 596.75 112.94 596.75 123.98C596.75 134.9 598.97 143.42 603.41 149.54ZM700.543 185V62.6H752.023C771.703 62.6 787.183 68.12 798.463 79.16C809.863 90.08 815.563 105.02 815.563 123.98C815.563 142.94 809.863 157.88 798.463 168.8C787.183 179.6 771.703 185 752.023 185H700.543ZM752.023 155.3C760.303 155.3 766.663 152.6 771.103 147.2C775.663 141.68 777.943 133.94 777.943 123.98C777.943 113.9 775.663 106.1 771.103 100.58C766.663 95.06 760.303 92.3 752.023 92.3H737.263V155.3H752.023ZM829.918 185V62.6H920.818V91.4H866.638V108.86H913.618V136.76H866.638V156.2H920.818V185H829.918ZM969.57 95C969.57 98.24 971.31 100.82 974.79 102.74C978.27 104.54 982.59 105.8 987.75 106.52C992.91 107.24 998.55 108.38 1004.67 109.94C1010.79 111.5 1016.43 113.42 1021.59 115.7C1026.75 117.98 1031.07 121.76 1034.55 127.04C1038.03 132.32 1039.77 138.86 1039.77 146.66C1039.77 159.5 1034.91 169.7 1025.19 177.26C1015.47 184.7 1002.87 188.42 987.39 188.42C971.55 188.42 958.59 184.7 948.51 177.26C938.43 169.82 932.49 158.84 930.69 144.32H969.39C969.99 149.48 971.91 153.5 975.15 156.38C978.39 159.14 982.59 160.52 987.75 160.52C997.35 160.52 1002.15 157.4 1002.15 151.16C1002.15 148.4 1000.83 146.12 998.19 144.32C995.67 142.4 992.31 140.9 988.11 139.82C984.03 138.74 979.47 137.72 974.43 136.76C969.51 135.8 964.53 134.48 959.49 132.8C954.57 131.12 950.01 129.02 945.81 126.5C941.73 123.98 938.37 120.38 935.73 115.7C933.21 111.02 931.95 105.44 931.95 98.96C931.95 87.32 936.45 77.78 945.45 70.34C954.45 62.9 966.81 59.18 982.53 59.18C996.81 59.18 1008.93 62.72 1018.89 69.8C1028.85 76.88 1034.61 87.44 1036.17 101.48H996.93C995.25 91.88 989.91 87.08 980.91 87.08C977.55 87.08 974.79 87.8 972.63 89.24C970.59 90.68 969.57 92.6 969.57 95Z"
    fill="#08272E" />
  <path
    d="M73.1816 185H21.616C27.0085 149.563 44.2813 117.423 73.4344 88.582H0.130297V60.258H125V83.732C92.6451 116.324 75.3723 150.08 73.1816 185Z"
    fill="#08272E" />
  <path d="M0 22H124.823V46H0V22Z" fill="#E56FAE" />
</svg>
  